SplineFontDB: 3.2
FontName: myuusunimuyo
FullName: myuusunimuyo
FamilyName: myuusunimuyo-v3
Weight: Regular
Copyright: Copyright (c) 2022, ark231
UComments: "2022-11-23: Created with FontForge (http://fontforge.org)"
Version: 001.000
ItalicAngle: 0
UnderlinePosition: -100
UnderlineWidth: 50
Ascent: 800
Descent: 200
InvalidEm: 0
LayerCount: 2
Layer: 0 0 "+gMyXYgAA" 1
Layer: 1 0 "+Uk2XYgAA" 0
XUID: [1021 707 -1884573640 11005345]
StyleMap: 0x0000
FSType: 0
OS2Version: 0
OS2_WeightWidthSlopeOnly: 0
OS2_UseTypoMetrics: 1
CreationTime: 1669164748
ModificationTime: 1671243730
OS2TypoAscent: 0
OS2TypoAOffset: 1
OS2TypoDescent: 0
OS2TypoDOffset: 1
OS2TypoLinegap: 90
OS2WinAscent: 0
OS2WinAOffset: 1
OS2WinDescent: 0
OS2WinDOffset: 1
HheadAscent: 0
HheadAOffset: 1
HheadDescent: 0
HheadDOffset: 1
OS2Vendor: 'PfEd'
Lookup: 4 0 0 "+VAhbVzB4MG5/bmPb in +MOkwxjDzZYdbVwAA lookup 0" { "+VAhbVzB4MG5/bmPb in +MOkwxjDzZYdbVwAA lookup 0-1"  } ['    ' ('DFLT' <'dflt' > 'latn' <'dflt' > ) 'liga' ('DFLT' <'dflt' > 'latn' <'dflt' > ) ]
MarkAttachClasses: 1
DEI: 91125
Encoding: ISO8859-1
UnicodeInterp: none
NameList: AGL For New Fonts
DisplaySize: -48
AntiAlias: 1
FitToEm: 0
WidthSeparation: 150
WinInfo: 0 38 14
BeginPrivate: 0
EndPrivate
BeginChars: 450 224

StartChar: i
Encoding: 105 105 0
Width: 595
Flags: W
HStem: 0 21G<459 526> 0 21G<459 526> 325 67<286.549 414.076> 608 67<44 213 287.004 414.02>
VStem: 175 66.875<435.943 563.33> 459 67<0 363 437.016 563.236>
LayerCount: 2
Fore
SplineSet
44 675 m 1xbc
 355 675 l 1
 450 673 526 595 526 500 c 2
 526 0 l 1
 459 0 l 1
 459 363 l 1
 429 339 392 325 351 325 c 0
 254 325 175 403 175 500 c 0
 175 541 189 578 213 608 c 1
 44 608 l 1
 44 675 l 1xbc
352 608 m 0
 288.315429688 608 241.875 556.84375 241.875 500.287109375 c 0
 241.875 482.24609375 246.600585938 463.655273438 257 446 c 0
 275 415 308 394 344 392 c 1
 351 392 l 2
 411.997070312 392 458.908203125 443.814453125 458.908203125 500.703125 c 0
 458.908203125 524.022460938 451.025390625 548.1953125 433 570 c 0
 426 579 398 608 352 608 c 0
EndSplineSet
Validated: 1
Ligature2: "+VAhbVzB4MG5/bmPb in +MOkwxjDzZYdbVwAA lookup 0-1" i
Ligature2: "+VAhbVzB4MG5/bmPb in +MOkwxjDzZYdbVwAA lookup 0-1" i
EndChar

StartChar: a
Encoding: 97 97 1
Width: 602
Flags: W
HStem: 0 21G<67 135> 0 21G<67 135> 312 64<178.288 309.833> 583 65<180.457 309.793 383 553>
VStem: 67 68<0 348 418.657 540.488> 353.896 67.1045<420.914 539.966>
LayerCount: 2
Fore
SplineSet
553 648 m 1xbc
 553 583 l 1
 383 583 l 1
 407 555 421 519 421 480 c 0
 421 387 342 312 244 312 c 0
 203 312 165 325 135 348 c 1
 135 0 l 1
 67 0 l 1
 67 478 l 1
 68 478 l 1
 68 480 l 2
 68 571 144 645 240 648 c 1
 553 648 l 1xbc
243 583 m 0
 189.370117188 583 134.884765625 541.10546875 134.884765625 480.243164062 c 0
 134.884765625 475.284179688 135.24609375 470.198242188 136 465 c 0
 145 407 198 376 244 376 c 0
 316.5703125 376 353.895507812 437.091796875 353.895507812 478.869140625 c 0
 353.895507812 484.297851562 353.264648438 489.400390625 352 494 c 1
 344 550 292 583 248 583 c 0
 246 583 245 583 243 583 c 0
EndSplineSet
Validated: 1
Ligature2: "+VAhbVzB4MG5/bmPb in +MOkwxjDzZYdbVwAA lookup 0-1" a
Ligature2: "+VAhbVzB4MG5/bmPb in +MOkwxjDzZYdbVwAA lookup 0-1" a
EndChar

StartChar: u
Encoding: 117 117 2
Width: 640
Flags: W
HStem: 0 21G<231 298> 0 21G<231 298> 357 67<47 232 343.757 471.089> 640 67<342.233 470.77>
VStem: 232 67.0615<0 357 468.91 594.495> 515.432 66.8242<468.038 595.787>
LayerCount: 2
Fore
SplineSet
407 707 m 0xbc
 408.154296875 707.025390625 409.30859375 707.037109375 410.462890625 707.037109375 c 0
 455.299804688 707.037109375 499.802734375 688.171875 531 656 c 0
 566.61328125 624.237304688 582.255859375 581.768554688 582.255859375 538.833007812 c 0
 582.255859375 448.924804688 513.661132812 356.966796875 416.197265625 356.966796875 c 0
 415.134765625 356.966796875 414.069335938 356.978515625 413 357 c 0
 375 357 337 357 299 357 c 1
 299 228 298 129 298 0 c 1
 231 0 l 1
 231 129 232 228 232 357 c 1
 47 357 l 1
 47 424 l 1
 232 424 l 1
 232 513 l 2
 231.536132812 518.049804688 231.30859375 523.10546875 231.30859375 528.151367188 c 0
 231.30859375 619.127929688 305.236328125 707.116210938 400.967773438 707.116210938 c 0
 402.96875 707.116210938 404.98046875 707.078125 407 707 c 0xbc
406.859375 423.431640625 m 0
 460.198242188 423.431640625 515.431640625 467.6875 515.431640625 533.336914062 c 0
 515.431640625 588.622070312 467.14453125 640.046875 410.923828125 640.046875 c 0
 409.952148438 640.046875 408.9765625 640.03125 408 640 c 0
 407.228515625 640.017578125 406.45703125 640.02734375 405.686523438 640.02734375 c 0
 347.594726562 640.02734375 299.061523438 591.004882812 299.061523438 533.819335938 c 0
 299.061523438 475.501953125 345.715820312 423.431640625 406.859375 423.431640625 c 0
EndSplineSet
Validated: 1
Ligature2: "+VAhbVzB4MG5/bmPb in +MOkwxjDzZYdbVwAA lookup 0-1" u
Ligature2: "+VAhbVzB4MG5/bmPb in +MOkwxjDzZYdbVwAA lookup 0-1" u
EndChar

StartChar: o
Encoding: 111 111 3
Width: 642
Flags: HW
HStem: 0 21G<334.812 401.812> 0 21G<334.812 401.812> 343 67<162.724 290.055 401.812 586.812> 626 67<163.041 291.58>
VStem: 52 66.3799<454.049 581.796> 334.812 67<0 343 454.91 580.495>
LayerCount: 2
Fore
SplineSet
226.8125 693 m 4xbc
 228.83203125 693.078125 230.842773438 693.116210938 232.844726562 693.116210938 c 4
 328.576171875 693.116210938 402.502929688 605.127929688 402.502929688 514.151367188 c 4
 402.502929688 509.10546875 402.276367188 504.049804688 401.8125 499 c 6
 401.8125 410 l 5
 586.8125 410 l 5
 586.8125 343 l 5
 401.8125 343 l 5
 401.8125 0 l 5
 334.8125 0 l 5
 334.8125 343 l 5
 296.8125 343 258.8125 343 220.8125 343 c 4
 219.743164062 342.978515625 218.677734375 342.966796875 217.615234375 342.966796875 c 4
 120.1484375 342.966796875 52 434.948242188 52 524.8671875 c 4
 52 567.791015625 67.529296875 610.245117188 102.8125 642 c 4
 134.008789062 674.171875 178.512695312 693.037109375 223.349609375 693.037109375 c 4
 224.50390625 693.037109375 225.658203125 693.025390625 226.8125 693 c 4xbc
334.75 519.819335938 m 4
 334.75 577.001953125 286.21875 626.02734375 228.125976562 626.02734375 c 4
 227.35546875 626.02734375 226.583984375 626.017578125 225.8125 626 c 4
 224.834960938 626.03125 223.860351562 626.046875 222.887695312 626.046875 c 4
 166.66796875 626.046875 118.379882812 574.622070312 118.379882812 519.336914062 c 4
 118.379882812 453.685546875 173.616210938 409.431640625 226.953125 409.431640625 c 4
 288.094726562 409.431640625 334.75 461.5 334.75 519.819335938 c 4
EndSplineSet
Ligature2: "+VAhbVzB4MG5/bmPb in +MOkwxjDzZYdbVwAA lookup 0-1" o
Ligature2: "+VAhbVzB4MG5/bmPb in +MOkwxjDzZYdbVwAA lookup 0-1" o
EndChar

StartChar: e
Encoding: 101 101 4
Width: 458
Flags: W
HStem: 0 21G<194 261> 0 21G<194 261> 302 69<157.587 194> 578 68<157.587 194> 663 20G<194 261>
VStem: 51 67.9531<408.527 539.449> 194 67<0 306.538 372 577 641.479 683> 334.125 66.875<409.443 539.5>
LayerCount: 2
Fore
SplineSet
194 683 m 1xbf
 261 683 l 1
 261 646 l 1
 341 630 401 559 401 474 c 0
 401 390 341 319 261 303 c 1
 261 0 l 1
 194 0 l 1
 194 302 l 1
 113 317 51 389 51 474 c 0
 51 560 113 631 194 646 c 1
 194 683 l 1xbf
194 578 m 1
 145.314453125 563.137695312 118.953125 518.073242188 118.953125 473.08984375 c 0
 118.953125 430.295898438 142.809570312 387.576171875 194 371 c 5
 194 578 l 1
261 577 m 1
 261 372 l 1
 309.874023438 388.458007812 334.125 431.528320312 334.125 474.54296875 c 0
 334.125 517.779296875 309.624023438 560.958984375 261 577 c 1
EndSplineSet
Validated: 1
Ligature2: "+VAhbVzB4MG5/bmPb in +MOkwxjDzZYdbVwAA lookup 0-1" e
Ligature2: "+VAhbVzB4MG5/bmPb in +MOkwxjDzZYdbVwAA lookup 0-1" e
EndChar

StartChar: k
Encoding: 107 107 5
Width: 439
Flags: W
HStem: 0 67<136 387>
VStem: 69 67<67 564>
LayerCount: 2
Fore
SplineSet
69 564 m 1
 136 564 l 1
 136 67 l 1
 387 67 l 1
 387 0 l 1
 281 0 175 0 69 0 c 1
 69 188 69 376 69 564 c 1
EndSplineSet
Validated: 1
EndChar

StartChar: s
Encoding: 115 115 6
Width: 444
Flags: HW
HStem: 0.280273 66.7197<69.4443 320> 148 68<136 320>
VStem: 69 67<216 587> 320 67<67 149>
LayerCount: 2
Fore
SplineSet
387 0 m 5
 69 0 l 5
 69 67 l 5
 320 67 l 5
 320 148 l 5
 69 148 l 5
 69 587 l 5
 136 587 l 5
 136 216 l 5
 387 216 l 5
 387 0 l 5
EndSplineSet
EndChar

StartChar: t
Encoding: 116 116 7
Width: 443
Flags: HW
HStem: 1 67<253 319> 144 67<123 186 253 319>
VStem: 56.4443 66.5557<-1 144> 186 67<68 144 211 586> 319 67<68 144>
LayerCount: 2
Fore
SplineSet
186 586 m 5
 253 586 l 5
 253 211 l 5
 386 211 l 5
 386 0 l 5
 186 0 l 5
 186 144 l 5
 165 144 144 144 123 144 c 5
 123 0 l 5
 56 0 l 5
 56 211 l 5
 186 211 l 5
 186 586 l 5
319 144 m 5
 297 144 275 144 253 144 c 5
 253 68 l 5
 319 68 l 5
 319 144 l 5
EndSplineSet
EndChar

StartChar: n
Encoding: 110 110 8
Width: 397
Flags: W
HStem: 0 65<143.152 254.081> 654 20G<163 230>
VStem: 50 66<92.5772 202.395> 163 67<283.544 674> 281 63<92.5772 202.48>
LayerCount: 2
Fore
SplineSet
163 674 m 5
 230 674 l 5
 230 290 l 5
 295 275 344 216 344 147 c 4
 344 66 278 0 197 0 c 4
 116 0 50 66 50 147 c 4
 50 216 98 274 163 290 c 5
 163 674 l 5
199 230 m 4
 153 230 116 193 116 147 c 4
 116 102 153 65 199 65 c 4
 244 65 281 102 281 147 c 4
 281 193 244 230 199 230 c 4
EndSplineSet
Validated: 1
EndChar

StartChar: h
Encoding: 104 104 9
Width: 445
Flags: W
HStem: 1 21G<69 136> 1 21G<69 136> 498 67<136 387>
VStem: 69 67<1 498>
LayerCount: 2
Fore
SplineSet
69 1 m 5xb0
 69 189 69 377 69 565 c 5
 175 565 281 565 387 565 c 5
 387 498 l 5
 136 498 l 5
 136 1 l 5
 69 1 l 5xb0
EndSplineSet
Validated: 1
EndChar

StartChar: m
Encoding: 109 109 10
Width: 450
Flags: HW
HStem: 0 21G<69 136> 0 21G<69 136> 371 67<136 320> 520 66.5557<69.4443 320>
VStem: 69 67<0 371> 320 67<438 520>
LayerCount: 2
Fore
SplineSet
69 0 m 5xbc
 69 146 69 292 69 438 c 1
 320 438 l 1
 320 520 l 1
 69 520 l 1
 69 587 l 1
 387 587 l 1
 387 371 l 1
 136 371 l 1
 136 0 l 1
 69 0 l 5xbc
EndSplineSet
EndChar

StartChar: r
Encoding: 114 114 11
Width: 449
Flags: HW
HStem: 0 21G<186 253> 0 21G<186 253> 375 67<123 186 253 319> 517 67<253 319>
VStem: 56.4443 66.5557<442 587> 186 67<0 375 442 517 584 585> 319 67<442 517 584 585>
LayerCount: 2
Fore
SplineSet
186 -0 m 1xbe
 186 375 l 1
 56 375 l 1
 56 587 l 1
 123 587 l 1
 123 442 l 1
 144 442 165 442 186 442 c 1
 186 585 l 1
 386 585 l 1
 386 375 l 1
 253 375 l 1
 253 -0 l 1
 186 -0 l 1xbe
319 442 m 1
 319 467 319 492 319 517 c 1
 253 517 l 1
 253 442 l 1
 275 442 297 442 319 442 c 1
EndSplineSet
EndChar

StartChar: p
Encoding: 112 112 12
Width: 401
Flags: W
HStem: 0 21G<164 231> 0 21G<164 231> 609 65<144.152 255.081>
VStem: 51 66<471.227 581.348> 164 67<0 390.425> 282 63<471.227 581.348>
LayerCount: 2
Fore
SplineSet
164 0 m 1xbc
 164 384 l 1
 99 399 51 457 51 527 c 0
 51 608 117 674 198 674 c 0
 279 674 345 608 345 527 c 0
 345 457 296 399 231 384 c 1
 231 0 l 1
 164 0 l 1xbc
200 444 m 0
 245 444 282 481 282 526 c 0
 282 572 245 609 200 609 c 0
 154 609 117 572 117 526 c 0
 117 481 154 444 200 444 c 0
EndSplineSet
Validated: 1
EndChar

StartChar: vocalize
Encoding: 256 -1 13
Width: 1000
HStem: 550.867 191.175
LayerCount: 2
Fore
SplineSet
358.02734375 742.041992188 m 1
 421.477539062 678.3125 485.288085938 614.59375 549.008789062 550.8671875 c 1
 483.616210938 550.8671875 l 1
 441.721679688 592.76171875 399.826171875 634.65625 357.931640625 676.55078125 c 1
 316.037109375 634.65625 274.143554688 592.76171875 232.25 550.8671875 c 1
 166.852539062 550.8671875 l 1
 230.577148438 614.591796875 294.302734375 678.317382812 358.02734375 742.041992188 c 1
EndSplineSet
Validated: 1
EndChar

StartChar: lonely_w
Encoding: 257 -1 22
Width: 333
Flags: W
HStem: -199 33<128.117 202.495> -63 33<128.189 202.931>
VStem: 81 33<-150.623 -77.1431 -48 -29> 218 32<-149.005 -78.8774 -48 -28>
LayerCount: 2
Fore
SplineSet
218 -28 m 1
 250 -28 l 1
 250 -114 l 2
 250 -161 212 -199 166 -199 c 0
 120 -199 83 -162 81 -117 c 1
 81 -29 l 1
 114 -29 l 1
 114 -48 l 1
 128 -36 146 -30 166 -30 c 0
 185 -30 203 -36 218 -48 c 1
 218 -28 l 1
165 -63 m 0
 137 -63 114 -86 114 -114 c 0
 114 -142 137 -166 165 -166 c 0
 194 -166 217 -142 217 -114 c 0
 217 -86 194 -63 165 -63 c 0
EndSplineSet
Validated: 1
EndChar

StartChar: lonely_y
Encoding: 258 -1 23
Width: 478
Flags: W
HStem: -198 33<201.005 274.866> -61 33<81 172 201.125 274 305 395>
VStem: 154 32<-149.688 -76.6098> 289 34<-150.557 -75.3722>
LayerCount: 2
Fore
SplineSet
81 -28 m 1
 395 -28 l 1
 395 -61 l 1
 305 -61 l 1
 316 -75 323 -94 323 -113 c 0
 323 -160 285 -198 238 -198 c 0
 192 -198 154 -160 154 -113 c 0
 154 -94 161 -75 172 -61 c 1
 81 -61 l 1
 81 -28 l 1
238 -62 m 0
 209 -62 186 -85 186 -113 c 0
 186 -141 209 -165 238 -165 c 0
 266 -165 289 -141 289 -113 c 0
 289 -85 266 -62 238 -62 c 0
EndSplineSet
Validated: 1
EndChar

StartChar: comma
Encoding: 44 44 24
Width: 217
Flags: W
HStem: 0 21G<73 140.016> 0 21G<73 140.016> 619 20G<73 140.016>
VStem: 73 67.0156<0 639>
LayerCount: 2
Fore
SplineSet
73 639 m 1xb0
 140.015625 639 l 1
 140.015625 0 l 1
 73 0 l 1
 73 639 l 1xb0
EndSplineSet
Validated: 1
EndChar

StartChar: hyphen
Encoding: 45 45 25
Width: 302
Flags: W
VStem: 55.4121 191.176
LayerCount: 2
Fore
SplineSet
246.587890625 332.981445312 m 5
 182.857421875 269.53125 119.138671875 205.720703125 55.412109375 142 c 5
 55.412109375 207.392578125 l 5
 97.306640625 249.287109375 139.201171875 291.182617188 181.095703125 333.077148438 c 5
 139.201171875 374.971679688 97.306640625 416.865234375 55.412109375 458.758789062 c 5
 55.412109375 524.15625 l 5
 119.13671875 460.431640625 182.86328125 396.706054688 246.587890625 332.981445312 c 5
EndSplineSet
Validated: 1
EndChar

StartChar: period
Encoding: 46 46 26
Width: 519
Flags: W
HStem: 148.676 312.738
LayerCount: 2
Fore
SplineSet
393.73828125 461.4140625 m 5
 465.09375 461.4140625 l 5
 351.265625 148.67578125 l 5
 279.91015625 148.67578125 l 5
 347.7265625 335 l 5
 125.78515625 149.767578125 l 5
 125.26171875 148.328125 l 5
 124.072265625 148.328125 l 5
 123.556640625 147.897460938 l 5
 123.1953125 148.328125 l 5
 53.90625 148.328125 l 5
 167.208984375 459.626953125 l 5
 238.564453125 459.626953125 l 5
 171.126953125 274.34375 l 5
 392.55859375 460.147460938 l 5
 393.060546875 459.55078125 l 5
 393.73828125 461.4140625 l 5
EndSplineSet
Validated: 1
EndChar

StartChar: k_i
Encoding: 259 -1 27
Width: 842
Flags: W
HStem: 0 67<529 780> 325 67<289.651 417.076> 608 67<47 216 290.004 417.02>
VStem: 178 66.875<435.933 563.33> 462 67<67 363 437.016 563.134>
LayerCount: 2
Fore
SplineSet
461.908203125 500.703125 m 0
 461.908203125 555.850991229 416.470899725 608 355 608 c 0
 291.315429688 608 244.875 556.84375 244.875 500.287109375 c 0
 244.875 444.664756119 290.029461876 395.165029896 347 392 c 1
 354 392 l 2
 414.997070312 392 461.908203125 443.814453125 461.908203125 500.703125 c 0
47 675 m 1
 358 675 l 1
 453 673 529 595 529 500 c 0
 529 355.666666667 529 211.333333333 529 67 c 1
 780 67 l 1
 780 0 l 1
 674 -0 568 0 462 0 c 1
 462 121 462 242 462 363 c 1
 432 339 395 325 354 325 c 0
 257 325 178 403 178 500 c 0
 178 541 192 578 216 608 c 1
 47 608 l 1
 47 675 l 1
EndSplineSet
Validated: 1
LCarets2: 1 491
Ligature2: "+VAhbVzB4MG5/bmPb in +MOkwxjDzZYdbVwAA lookup 0-1" k i
EndChar

StartChar: k_a
Encoding: 260 -1 28
Width: 611
VWidth: 0
Flags: W
HStem: 0 67<137 387> 312 64<179.89 311.833> 583 65<182.457 313.348 385 555>
VStem: 69 68<67 348 417.458 540.488> 355.896 67.1045<420.914 539.866>
LayerCount: 2
Fore
SplineSet
355.895507812 478.869140625 m 0
 355.895507812 531.922862805 308.458824661 583 250 583 c 0
 248 583 247 583 245 583 c 0
 191.370117188 583 136.884765625 541.10546875 136.884765625 480.243164062 c 0
 136.884765625 417.063108387 192.089150406 376 246 376 c 0
 318.5703125 376 355.895507812 437.091796875 355.895507812 478.869140625 c 0
555 648 m 1
 555 583 l 1
 385 583 l 1
 409 555 423 519 423 480 c 0
 423 387 344 312 246 312 c 0
 205 312 167 325 137 348 c 1
 137 67 l 1
 387 67 l 1
 387 0 l 1
 281 -0 175 0 69 0 c 1
 69 478 l 1
 70 478 l 1
 70 480 l 2
 70 571 146 645 242 648 c 1
 555 648 l 1
EndSplineSet
Validated: 1
LCarets2: 1 106
Ligature2: "+VAhbVzB4MG5/bmPb in +MOkwxjDzZYdbVwAA lookup 0-1" k a
EndChar

StartChar: k_u
Encoding: 261 -1 29
Width: 691
VWidth: 0
Flags: W
HStem: 0 67<319.085 570> 357 67<68 253 364.757 492.089> 640 67<363.233 491.77>
VStem: 252.309 67.7529<67 357 468.91 594.495> 536.432 66.8242<468.038 595.787>
LayerCount: 2
Fore
SplineSet
427.859375 423.431640625 m 0
 481.198242188 423.431640625 536.431640625 467.6875 536.431640625 533.336914062 c 0
 536.431640625 588.622070312 488.14453125 640.046875 431.923828125 640.046875 c 0
 430.952148438 640.046875 429.9765625 640.03125 429 640 c 0
 428.228515625 640.017578125 427.45703125 640.02734375 426.686523438 640.02734375 c 0
 368.594726562 640.02734375 320.061523438 591.004882812 320.061523438 533.819335938 c 0
 320.061523438 475.501953125 366.715820312 423.431640625 427.859375 423.431640625 c 0
428 707 m 0
 429.154296875 707.025390625 430.30859375 707.037109375 431.462890625 707.037109375 c 0
 476.299804688 707.037109375 520.802734375 688.171875 552 656 c 0
 587.61328125 624.237304688 603.255859375 581.768554688 603.255859375 538.833007812 c 0
 603.255859375 448.924804688 534.661132812 356.966796875 437.197265625 356.966796875 c 0
 436.134765625 356.966796875 435.069335938 356.978515625 434 357 c 0
 396 357 358 357 320 357 c 1
 320 251.186523438 319.327148438 165.557617188 319.084960938 67 c 1
 570 67 l 1
 570 0 l 1
 464 0 358 0 252 0 c 1
 252 188 252 82 252 270 c 1
 252.859375 270 l 1
 252.944335938 297.857421875 253 326.595703125 253 357 c 1
 68 357 l 1
 68 424 l 1
 253 424 l 1
 253 513 l 2
 252.536132812 518.049804688 252.30859375 523.10546875 252.30859375 528.151367188 c 0
 252.30859375 619.127929688 326.236328125 707.116210938 421.967773438 707.116210938 c 0
 423.96875 707.116210938 425.98046875 707.078125 428 707 c 0
EndSplineSet
Validated: 1
LCarets2: 1 286
Ligature2: "+VAhbVzB4MG5/bmPb in +MOkwxjDzZYdbVwAA lookup 0-1" k u
EndChar

StartChar: k_o
Encoding: 262 -1 30
Width: 743
VWidth: 0
Flags: W
HStem: 0 67<415 666> 343 67<175.912 303.242 415 600> 626.047 66.9902<176.229 304.767>
VStem: 65.1875 66.3799<454.049 581.796> 347.938 67.7529<67 343 454.91 580.495>
LayerCount: 2
Fore
SplineSet
347.9375 519.819335938 m 0
 347.9375 577.001953125 299.40625 626.02734375 241.313476562 626.02734375 c 0
 240.54296875 626.02734375 239.771484375 626.017578125 239 626 c 0
 238.022460938 626.03125 237.047851562 626.046875 236.075195312 626.046875 c 0
 179.85546875 626.046875 131.567382812 574.622070312 131.567382812 519.336914062 c 0
 131.567382812 453.685546875 186.803710938 409.431640625 240.140625 409.431640625 c 0
 301.282226562 409.431640625 347.9375 461.5 347.9375 519.819335938 c 0
240 693 m 0
 242.01953125 693.078125 244.030273438 693.116210938 246.032226562 693.116210938 c 0
 341.763671875 693.116210938 415.690429688 605.127929688 415.690429688 514.151367188 c 0
 415.690429688 509.10546875 415.463867188 504.049804688 415 499 c 2
 415 410 l 1
 600 410 l 1
 600 343 l 1
 415 343 l 1
 415 67 l 1
 666 67 l 1
 666 0 l 1
 560 0 454 0 348 0 c 1
 348 188 347 58 347 246 c 1
 348 246 l 1
 348 343 l 1
 310 343 272 343 234 343 c 0
 232.930664062 342.978515625 231.865234375 342.966796875 230.802734375 342.966796875 c 0
 133.3359375 342.966796875 65.1875 434.948242188 65.1875 524.8671875 c 0
 65.1875 567.791015625 80.716796875 610.245117188 116 642 c 0
 147.196289062 674.171875 191.700195312 693.037109375 236.537109375 693.037109375 c 0
 237.69140625 693.037109375 238.845703125 693.025390625 240 693 c 0
EndSplineSet
Validated: 1
LCarets2: 1 379
Ligature2: "+VAhbVzB4MG5/bmPb in +MOkwxjDzZYdbVwAA lookup 0-1" k o
EndChar

StartChar: k_e
Encoding: 263 -1 31
Width: 604
VWidth: 0
Flags: W
HStem: 0 67<274 525> 302 69<170.587 207> 578 68<170.587 207> 663 20G<207 274>
VStem: 64 67.9531<408.527 539.449> 207 67<67 306.538 372 577 641.479 683> 347.125 66.875<409.443 539.5>
LayerCount: 2
Fore
SplineSet
274 577 m 1
 274 372 l 1
 322.874023438 388.458007812 347.125 431.528320312 347.125 474.54296875 c 0
 347.125 517.779296875 322.624023438 560.958984375 274 577 c 1
207 578 m 1
 158.314453125 563.137695312 131.953125 518.073242188 131.953125 473.08984375 c 0
 131.953125 430.295898438 155.809570312 387.576171875 207 371 c 1
 207 578 l 1
207 683 m 1
 274 683 l 1
 274 646 l 1
 354 630 414 559 414 474 c 0
 414 390 354 319 274 303 c 1
 274 67 l 1
 525 67 l 1
 525 0 l 1
 419 0 313 0 207 0 c 1
 207 302 l 1
 126 317 64 389 64 474 c 0
 64 560 126 631 207 646 c 1
 207 683 l 1
EndSplineSet
Validated: 1
LCarets2: 1 239
Ligature2: "+VAhbVzB4MG5/bmPb in +MOkwxjDzZYdbVwAA lookup 0-1" k e
EndChar

StartChar: s_i
Encoding: 289 -1 37
Width: 813
VWidth: 0
Flags: W
HStem: 0 67<454 705> 148 68<521 705> 325 67<281.651 409.076> 608 67<39 208 282.004 409.02>
VStem: 170 66.875<435.933 563.33> 454 67<216 363 437.016 563.134> 705 67<67 148>
LayerCount: 2
Fore
SplineSet
453.908203125 500.703125 m 0
 453.908203125 555.850585938 408.470703125 608 347 608 c 0
 283.315429688 608 236.875 556.84375 236.875 500.287109375 c 0
 236.875 444.665039062 282.029296875 395.165039062 339 392 c 1
 346 392 l 2
 406.997070312 392 453.908203125 443.814453125 453.908203125 500.703125 c 0
39 675 m 1
 350 675 l 1
 445 673 521 594.995117188 521 500 c 2
 521 216 l 1
 772 216 l 1
 772 0 l 1
 454 0 l 1
 454 67 l 1
 705 67 l 1
 705 148 l 1
 454 148 l 1
 454 363 l 1
 424 339 387 325 346 325 c 0
 249 325 170 403 170 500 c 0
 170 541 184 578 208 608 c 1
 39 608 l 1
 39 675 l 1
EndSplineSet
Validated: 1
LCarets2: 1 489
Ligature2: "+VAhbVzB4MG5/bmPb in +MOkwxjDzZYdbVwAA lookup 0-1" s i
EndChar

StartChar: s_a
Encoding: 290 -1 38
Width: 619
VWidth: 0
Flags: HW
HStem: 0.280273 66.7197<69.4443 320> 148 68<136 320> 312 64<622.288 753.833> 583 65<624.457 753.793 827 997>
VStem: 69 67<216 587> 320 67<67 149> 511 68<0 348 418.657 540.488> 797.896 67.1045<420.914 539.966>
LayerCount: 2
Fore
SplineSet
555 648 m 1
 555 583 l 1
 385 583 l 1
 409 555 423 519 423 480 c 0
 423 387 344 312 246 312 c 0
 205 312 166 325 136 348 c 1
 136.66 216 l 1
 387 216 l 1
 387 0 l 1
 69 0 l 1
 69 67 l 1
 320 67 l 1
 320 148 l 1
 236.333333333 148 152.666666667 148 69 148 c 1
 69 258 69 368 69 478 c 1
 70 478 l 1
 70 480 l 2
 70 571 146 645 242 648 c 1
 555 648 l 1
355.895507812 478.869140625 m 0
 355.895507812 531.922862803 308.458824662 583 250 583 c 2
 245 583 l 2
 191.370117188 583 136.884765625 541.10546875 136.884765625 480.243164062 c 0
 136.884765625 417.063108387 192.089150406 376 246 376 c 0
 318.5703125 376 355.895507812 437.091796875 355.895507812 478.869140625 c 0
EndSplineSet
LCarets2: 1 0
Ligature2: "+VAhbVzB4MG5/bmPb in +MOkwxjDzZYdbVwAA lookup 0-1" s a
EndChar

StartChar: s_u
Encoding: 291 -1 39
Width: 673
VWidth: 0
Flags: HW
HStem: 0.280273 66.7197<256.444 507> 148 68<323 507> 357 67<678 863 974.757 1102.09> 640 67<973.233 1101.77>
VStem: 256 67<216 587> 507 67<67 149> 863 67.0615<0 357 468.91 594.495> 1146.43 66.8242<468.038 595.787>
LayerCount: 2
Fore
SplineSet
431 707 m 0
 432.154296875 707.025390625 433.30859375 707.037109375 434.462890625 707.037109375 c 0
 479.299804688 707.037109375 523.802734375 688.171875 555 656 c 0
 590.61328125 624.237304688 606.255859375 581.768554688 606.255859375 538.833007812 c 0
 606.255859375 448.924804688 537.661132812 356.966796875 440.197265625 356.966796875 c 0
 439.134765625 356.966796875 438.069335938 356.978515625 437 357 c 0
 399 357 361 357 323 357 c 1
 323 216 l 1
 574 216 l 1
 574 0 l 1
 256 0 l 1
 256 67 l 1
 507 67 l 1
 507 148 l 1
 256 148 l 1
 256 357 l 1
 71 357 l 1
 71 424 l 1
 256 424 l 1
 256 513 l 2
 255.536132812 518.049804688 255.30859375 523.10546875 255.30859375 528.151367188 c 0
 255.30859375 619.127929688 329.236328125 707.116210938 424.967773438 707.116210938 c 0
 426.96875 707.116210938 428.98046875 707.078125 431 707 c 0
430.859375 423.431640625 m 0
 484.198242188 423.431640625 539.431640625 467.6875 539.431640625 533.336914062 c 0
 539.431640625 588.622070312 491.14453125 640.046875 434.923828125 640.046875 c 0
 433.952148438 640.046875 432.9765625 640.03125 432 640 c 0
 431.228515625 640.017578125 430.45703125 640.02734375 429.686523438 640.02734375 c 0
 371.594726562 640.02734375 323.061523438 591.004882812 323.061523438 533.819335938 c 0
 323.061523438 475.501953125 369.715820312 423.431640625 430.859375 423.431640625 c 0
EndSplineSet
LCarets2: 1 0
Ligature2: "+VAhbVzB4MG5/bmPb in +MOkwxjDzZYdbVwAA lookup 0-1" s u
EndChar

StartChar: s_o
Encoding: 292 -1 40
Width: 739
VWidth: 0
Flags: HW
HStem: 0.280273 66.7197<353.501 604.057> 148 68<420.057 604.057> 343 67<890.781 1018.11 1129.87 1314.87> 626 67<891.098 1019.64>
VStem: 353.057 67<216 587> 604.057 67<67 149> 780.057 66.3799<454.049 581.796> 1062.87 67<0 343 454.91 580.495>
LayerCount: 2
Fore
SplineSet
244.8125 693 m 0
 246.83203125 693.078125 248.842773438 693.116210938 250.844726562 693.116210938 c 0
 346.576171875 693.116210938 420.502929688 605.127929688 420.502929688 514.151367188 c 0
 420.502929688 509.10546875 420.276367188 504.049804688 419.8125 499 c 2
 419.8125 410 l 1
 604.8125 410 l 1
 604.8125 343 l 1
 420 343 l 1
 420 216 l 1
 671 216 l 1
 671 0 l 1
 353 0 l 1
 353 67 l 1
 604 67 l 1
 604 148 l 1
 353 148 l 1
 353 221 l 1
 352.8125 343 l 1
 238.8125 343 l 2
 237.743164062 343 236.677734375 342.966796875 235.615234375 342.966796875 c 0
 138.1484375 342.966796875 70 434.948242188 70 524.8671875 c 0
 70 567.791015625 85.529296875 610.245117188 120.8125 642 c 0
 152.008789062 674.171875 196.512695312 693.037109375 241.349609375 693.037109375 c 0
 242.50390625 693.037109375 243.658203125 693.025390625 244.8125 693 c 0
352.75 519.819335938 m 0
 352.75 577.001953125 304.21875 626.02734375 246.125976562 626.02734375 c 0
 245.35546875 626.02734375 244.583984375 626.017578125 243.8125 626 c 0
 242.834960938 626.03125 241.860351562 626.046875 240.887695312 626.046875 c 0
 184.66796875 626.046875 136.379882812 574.622070312 136.379882812 519.336914062 c 0
 136.379882812 453.685546875 191.616210938 409.431640625 244.953125 409.431640625 c 0
 306.094726562 409.431640625 352.75 461.5 352.75 519.819335938 c 0
EndSplineSet
LCarets2: 1 0
Ligature2: "+VAhbVzB4MG5/bmPb in +MOkwxjDzZYdbVwAA lookup 0-1" s o
EndChar

StartChar: s_e
Encoding: 293 -1 41
Width: 602
VWidth: 0
Flags: HW
HStem: 0.280273 66.7197<216.444 467> 148 68<283 467> 302 69<748.587 785> 578 68<748.587 785> 663 20G<785 852>
VStem: 216 67<216 587> 467 67<67 149> 642 67.9531<408.527 539.449> 785 67<0 306.538 372 577 641.479 683> 925.125 66.875<409.443 539.5>
LayerCount: 2
Fore
SplineSet
283 576 m 1
 283 371 l 1
 331.874023438 387.458007812 356.125 430.528320312 356.125 473.54296875 c 0
 356.125 516.779296875 331.624023438 559.958984375 283 576 c 1
216 577 m 1
 167.314453125 562.137695312 140.953125 517.073242188 140.953125 472.08984375 c 0
 140.953125 429.295898438 164.809570312 386.576171875 216 370 c 1
 216 577 l 1
216 682 m 1
 283 682 l 1
 283 645 l 1
 363 629 423 558 423 473 c 0
 423 389 363 318 283 302 c 1
 283 216 l 1
 534 216 l 1
 534 0 l 1
 216 0 l 1
 216 67 l 1
 467 67 l 1
 467 148 l 1
 216 148 l 1
 216 301 l 1
 135 316 73 388 73 473 c 0
 73 559 135 630 216 645 c 1
 216 682 l 1
EndSplineSet
LCarets2: 1 0
Ligature2: "+VAhbVzB4MG5/bmPb in +MOkwxjDzZYdbVwAA lookup 0-1" s e
EndChar

StartChar: t_i
Encoding: 319 -1 67
Width: 730
VWidth: 0
Flags: HW
HStem: 1 67<535 601> 144 67<405 468 535 601> 325 67<1011.55 1139.08> 608 67<769 938 1012 1139.02>
VStem: 338.444 66.5557<-1 144> 468 67<68 144 211 586> 601 67<68 144> 900 66.875<435.943 563.33> 1184 67<0 363 437.016 563.236>
LayerCount: 2
Fore
SplineSet
467.908203125 500.703125 m 0
 467.908203125 555.850585938 422.470703125 608 361 608 c 0
 297.315429688 608 250.875 556.84375 250.875 500.287109375 c 0
 250.875 444.665039062 296.029296875 395.165039062 353 392 c 1
 360 392 l 2
 420.997070312 392 467.908203125 443.814453125 467.908203125 500.703125 c 0
53 675 m 1
 364 675 l 1
 459 673 535 594.953125 535 500 c 2
 535 211 l 1
 668 211 l 1
 668 0 l 1
 468 0 l 1
 468 144 l 1
 447 144 426 144 405 144 c 1
 405 0 l 1
 338 0 l 1
 338 211 l 1
 468 211 l 1
 468 363 l 1
 438 339 401 325 360 325 c 0
 263 325 184 403 184 500 c 0
 184 541 198 578 222 608 c 1
 53 608 l 1
 53 675 l 1
601 144 m 1
 579 144 557 144 535 144 c 1
 535 68 l 1
 601 68 l 1
 601 144 l 1
EndSplineSet
LCarets2: 1 0
Ligature2: "+VAhbVzB4MG5/bmPb in +MOkwxjDzZYdbVwAA lookup 0-1" t i
EndChar

StartChar: t_a
Encoding: 320 -1 68
Width: 731
VWidth: 0
Flags: HW
HStem: 1 67<253 319> 144 67<123 186 253 319> 312 64<621.288 752.833> 583 65<623.457 752.793 826 996>
VStem: 56.4443 66.5557<-1 144> 186 67<68 144 211 586> 319 67<68 144> 510 68<0 348 418.657 540.488> 796.896 67.1045<420.914 539.966>
LayerCount: 2
Fore
SplineSet
472 480 m 0
 472 530.396484375 426.529296875 584 366 584 c 2
 361 584 l 2
 307 584 253 542 253 481 c 0
 253 416.201171875 309.98828125 377 362 377 c 0
 435 377 472 438 472 480 c 0
671 649 m 1
 671 584 l 1
 501 584 l 1
 525 556 539 520 539 481 c 0
 539 388 460 313 362 313 c 0
 321 313 283 326 253 349 c 1
 253 211 l 1
 386 211 l 1
 386 0 l 1
 186 0 l 1
 186 144 l 1
 165 144 144 144 123 144 c 1
 123 0 l 1
 56 0 l 1
 56 211 l 1
 186 211 l 1
 186 481 l 2
 186 572 262 646 358 649 c 1
 671 649 l 1
319 144 m 1
 297 144 275 144 253 144 c 1
 253 68 l 1
 319 68 l 1
 319 144 l 1
EndSplineSet
LCarets2: 1 0
Ligature2: "+VAhbVzB4MG5/bmPb in +MOkwxjDzZYdbVwAA lookup 0-1" t a
EndChar

StartChar: t_u
Encoding: 321 -1 69
Width: 650
VWidth: 0
Flags: HW
HStem: 1 67<253 319> 144 67<123 186 253 319> 357 67<490 675 786.757 914.089> 640 67<785.233 913.77>
VStem: 56.4443 66.5557<-1 144> 186 67<68 144 211 586> 319 67<68 144> 675 67.0615<0 357 468.91 594.495> 958.432 66.8242<468.038 595.787>
LayerCount: 2
Fore
SplineSet
416 638 m 2
 411 638 l 2
 353 638 304 589 304 532 c 0
 304 474 351 421 412 421 c 0
 465 421 520 465 520 531 c 0
 520 586 472 638 416 638 c 2
406 705 m 2
 415 705 l 2
 460 705 505 686 536 654 c 0
 572 622 587 580 587 537 c 0
 587 447 518 355 421 355 c 2
 304 355 l 1
 304 210 l 1
 437 210 l 1
 437 0 l 1
 237 0 l 1
 237 143 l 1
 216 143 195 143 174 143 c 1
 174 0 l 5
 107 0 l 5
 107 210 l 1
 237 210 l 1
 237 355 l 1
 52 355 l 1
 52 422 l 1
 237 422 l 1
 237 511 l 2
 237 516 236 521 236 526 c 0
 236 617 310 705 406 705 c 2
370 143 m 1
 348 143 326 143 304 143 c 1
 304 67 l 1
 370 67 l 1
 370 143 l 1
EndSplineSet
LCarets2: 1 0
Ligature2: "+VAhbVzB4MG5/bmPb in +MOkwxjDzZYdbVwAA lookup 0-1" t u
EndChar

StartChar: t_o
Encoding: 322 -1 70
Width: 621
VWidth: 0
Flags: HW
HStem: 1 67<390 456> 144 67<260 323 390 456> 343 67<742.724 870.055 981.812 1166.81> 626 67<743.041 871.58>
VStem: 193.444 66.5557<-1 144> 323 67<68 144 211 586> 456 67<68 144> 632 66.3799<454.049 581.796> 914.812 67<0 343 454.91 580.495>
LayerCount: 2
Fore
SplineSet
216 626 m 2
 211 626 l 2
 155 626 106 574 106 519 c 0
 106 453 162 409 215 409 c 0
 276 409 323 462 323 520 c 0
 323 577 274 626 216 626 c 2
211 693 m 2
 221 693 l 2
 317 693 391 605 391 514 c 0
 391 509 390 504 390 499 c 2
 390 410 l 1
 575 410 l 1
 575 343 l 1
 390 343 l 1
 390 211 l 1
 523 211 l 1
 523 0 l 1
 323 0 l 1
 323 144 l 1
 302 144 281 144 260 144 c 1
 260 0 l 1
 193 0 l 1
 193 211 l 1
 323 211 l 1
 323 343 l 1
 206 343 l 2
 109 343 40 435 40 525 c 0
 40 568 56 610 91 642 c 0
 122 674 166 693 211 693 c 2
456 144 m 1
 434 144 412 144 390 144 c 1
 390 68 l 1
 456 68 l 1
 456 144 l 1
EndSplineSet
LCarets2: 1 0
Ligature2: "+VAhbVzB4MG5/bmPb in +MOkwxjDzZYdbVwAA lookup 0-1" t o
EndChar

StartChar: t_e
Encoding: 323 -1 71
Width: 440
VWidth: 0
Flags: HW
HStem: 1 67<253 319> 144 67<123 186 253 319> 302 69<600.587 637> 578 68<600.587 637> 663 20G<637 704>
VStem: 56.4443 66.5557<-1 144> 186 67<68 144 211 586> 319 67<68 144> 494 67.9531<408.527 539.449> 637 67<0 306.538 372 577 641.479 683> 777.125 66.875<409.443 539.5>
LayerCount: 2
Fore
SplineSet
253 576 m 1
 253 371 l 1
 302 387 326 431 326 474 c 0
 326 517 302 560 253 576 c 1
186 577 m 1
 137 562 111 517 111 472 c 0
 111 429 135 387 186 370 c 1
 186 577 l 1
186 682 m 1
 253 682 l 1
 253 645 l 1
 333 629 393 558 393 473 c 0
 393 389 333 318 253 302 c 1
 253 211 l 1
 386 211 l 1
 386 0 l 1
 186 0 l 1
 186 144 l 1
 165 144 144 144 123 144 c 1
 123 0 l 1
 56 0 l 1
 56 211 l 1
 186 211 l 1
 186 301 l 1
 105 316 43 388 43 473 c 0
 43 559 105 630 186 645 c 1
 186 682 l 1
319 144 m 1
 297 144 275 144 253 144 c 1
 253 68 l 1
 319 68 l 1
 319 144 l 1
EndSplineSet
LCarets2: 1 0
Ligature2: "+VAhbVzB4MG5/bmPb in +MOkwxjDzZYdbVwAA lookup 0-1" t e
EndChar

StartChar: n_i
Encoding: 349 -1 97
Width: 693
VWidth: 0
Flags: HW
HStem: 0 65<444.152 555.081> 325 67<984.549 1112.08> 608 67<742 911 985.004 1112.02>
VStem: 351 66<92.5772 202.395> 464 67<283.544 674> 582 63<92.5772 202.48> 873 66.875<435.943 563.33> 1157 67<0 363 437.016 563.236>
LayerCount: 2
Fore
SplineSet
463.908203125 500.703125 m 0
 463.908203125 555.850585938 418.470703125 608 357 608 c 0
 293.315429688 608 246.875 556.84375 246.875 500.287109375 c 0
 246.875 444.665039062 292.029296875 395.165039062 349 392 c 1
 356 392 l 2
 416.997070312 392 463.908203125 443.814453125 463.908203125 500.703125 c 0
49 675 m 1
 360 675 l 1
 455 673 531 594.96484375 531 500 c 2
 531 290 l 1
 596 275 645 216 645 147 c 0
 645 66 579 0 498 0 c 0
 417 0 351 66 351 147 c 0
 351 216 399 274 464 290 c 1
 464 363 l 1
 434 339 397 325 356 325 c 0
 259 325 180 403 180 500 c 0
 180 541 194 578 218 608 c 1
 49 608 l 1
 49 675 l 1
500 230 m 0
 454 230 417 193 417 147 c 0
 417 102 454 65 500 65 c 0
 545 65 582 102 582 147 c 0
 582 193 545 230 500 230 c 0
EndSplineSet
LCarets2: 1 0
Ligature2: "+VAhbVzB4MG5/bmPb in +MOkwxjDzZYdbVwAA lookup 0-1" n i
EndChar

StartChar: n_a
Encoding: 350 -1 98
Width: 707
VWidth: 0
Flags: HW
HStem: 0 65<143.152 254.081> 312 64<575.288 706.833> 583 65<577.457 706.793 780 950> 654 20G<163 230>
VStem: 50 66<92.5772 202.395> 163 67<283.544 674> 281 63<92.5772 202.48> 464 68<0 348 418.657 540.488> 750.896 67.1045<420.914 539.966>
LayerCount: 2
Fore
SplineSet
448.895507812 479.869140625 m 0
 448.895507812 532.922862803 401.458824662 584 343 584 c 0
 341 584 340 584 338 584 c 0
 284.370117188 584 229.884765625 542.10546875 229.884765625 481.243164062 c 0
 229.884765625 418.063108387 285.089150406 377 339 377 c 0
 411.5703125 377 448.895507812 438.091796875 448.895507812 479.869140625 c 0
648 649 m 1
 648 584 l 1
 478 584 l 1
 502 556 516 520 516 481 c 0
 516 388 437 313 339 313 c 0
 298 313 260 326 230 349 c 1
 230 290 l 1
 295 275 344 216 344 147 c 0
 344 66 278 0 197 0 c 0
 116 0 50 66 50 147 c 0
 50 216 98 274 163 290 c 1
 163 481 l 2
 163 572 239 646 335 649 c 1
 648 649 l 1
199 230 m 0
 153 230 116 193 116 147 c 0
 116 102 153 65 199 65 c 0
 244 65 281 102 281 147 c 0
 281 193 244 230 199 230 c 0
EndSplineSet
LCarets2: 1 197
Ligature2: "+VAhbVzB4MG5/bmPb in +MOkwxjDzZYdbVwAA lookup 0-1" n a
EndChar

StartChar: n_u
Encoding: 351 -1 99
Width: 630
VWidth: 0
Flags: HW
HStem: 0 65<215.152 326.081> 357 67<516 701 812.757 940.089> 640 67<811.233 939.77> 654 20G<235 302>
VStem: 122 66<92.5772 202.395> 235 67<283.544 674> 353 63<92.5772 202.48> 701 67.0615<0 357 468.91 594.495> 984.432 66.8242<468.038 595.787>
LayerCount: 2
Fore
SplineSet
271 230 m 0
 225 230 188 193 188 147 c 0
 188 102 225 65 271 65 c 0
 316 65 353 102 353 147 c 0
 353 193 316 230 271 230 c 0
50 357 m 1
 50 424 l 1
 235 424 l 1
 235 513 l 2
 234.536132812 518.049804688 234.30859375 523.10546875 234.30859375 528.151367188 c 0
 234.30859375 619.127929688 308.236328125 707.116210938 403.967773438 707.116210938 c 0
 405.96875 707.116210938 407.98046875 707.078125 410 707 c 0
 411.154296875 707.025390625 412.30859375 707.037109375 413.462890625 707.037109375 c 0
 458.299804688 707.037109375 502.802734375 688.171875 534 656 c 0
 569.61328125 624.237304688 585.255859375 581.768554688 585.255859375 538.833007812 c 0
 585.255859375 448.924804688 516.661132812 356.966796875 419.197265625 356.966796875 c 0
 418.134765625 356.966796875 417.069335938 356.978515625 416 357 c 0
 378 357 340 357 302 357 c 1
 302 290 l 1
 367 275 416 216 416 147 c 0
 416 66 350 0 269 0 c 0
 188 0 122 66 122 147 c 0
 122 216 170 274 235 290 c 1
 235 357 l 1
 50 357 l 1
409.859375 423.431640625 m 0
 463.198242188 423.431640625 518.431640625 467.6875 518.431640625 533.336914062 c 0
 518.431640625 588.622070312 470.14453125 640.046875 413.923828125 640.046875 c 0
 412.952148438 640.046875 411.9765625 640.03125 411 640 c 0
 410.228515625 640.017578125 409.45703125 640.02734375 408.686523438 640.02734375 c 0
 350.594726562 640.02734375 302.061523438 591.004882812 302.061523438 533.819335938 c 0
 302.061523438 475.501953125 348.715820312 423.431640625 409.859375 423.431640625 c 0
EndSplineSet
LCarets2: 1 267
Ligature2: "+VAhbVzB4MG5/bmPb in +MOkwxjDzZYdbVwAA lookup 0-1" n u
EndChar

StartChar: n_o
Encoding: 352 -1 100
Width: 621
VWidth: 0
Flags: HW
HStem: 0 65<310.152 421.081> 343 67<726.724 854.055 965.812 1150.81> 626 67<727.041 855.58> 654 20G<330 397>
VStem: 217 66<92.5772 202.395> 330 67<283.544 674> 448 63<92.5772 202.48> 616 66.3799<454.049 581.796> 898.812 67<0 343 454.91 580.495>
LayerCount: 2
Fore
SplineSet
366 230 m 0
 320 230 283 193 283 147 c 0
 283 102 320 65 366 65 c 0
 411 65 448 102 448 147 c 0
 448 193 411 230 366 230 c 0
221.8125 693 m 0
 223.83203125 693.078125 225.842773438 693.116210938 227.844726562 693.116210938 c 0
 323.576171875 693.116210938 397.502929688 605.127929688 397.502929688 514.151367188 c 0
 397.502929688 509.10546875 397.276367188 504.049804688 396.8125 499 c 2
 396.8125 410 l 1
 581.8125 410 l 1
 581.8125 343 l 1
 396.961914062 343 l 1
 397 290 l 1
 462 275 511 216 511 147 c 0
 511 66 445 0 364 0 c 0
 283 0 217 66 217 147 c 0
 217 215.967773438 264.955078125 273.946289062 329.909179688 289.977539062 c 1
 329.8125 343 l 1
 291.8125 343 253.8125 343 215.8125 343 c 0
 214.743164062 342.978515625 213.677734375 342.966796875 212.615234375 342.966796875 c 0
 115.1484375 342.966796875 47 434.948242188 47 524.8671875 c 0
 47 567.791015625 62.529296875 610.245117188 97.8125 642 c 0
 129.008789062 674.171875 173.512695312 693.037109375 218.349609375 693.037109375 c 0
 219.50390625 693.037109375 220.658203125 693.025390625 221.8125 693 c 0
329.75 519.819335938 m 0
 329.75 577.001953125 281.21875 626.02734375 223.125976562 626.02734375 c 0
 222.35546875 626.02734375 221.583984375 626.017578125 220.8125 626 c 0
 219.834960938 626.03125 218.860351562 626.046875 217.887695312 626.046875 c 0
 161.66796875 626.046875 113.379882812 574.622070312 113.379882812 519.336914062 c 0
 113.379882812 453.685546875 168.616210938 409.431640625 221.953125 409.431640625 c 0
 283.094726562 409.431640625 329.75 461.5 329.75 519.819335938 c 0
EndSplineSet
LCarets2: 1 364
Ligature2: "+VAhbVzB4MG5/bmPb in +MOkwxjDzZYdbVwAA lookup 0-1" n o
EndChar

StartChar: n_e
Encoding: 353 -1 101
Width: 423
VWidth: 0
Flags: HW
HStem: 0 65<156.152 267.081> 302 69<567.587 604> 578 68<567.587 604> 654 20G<176 243 604 671>
VStem: 63 66<92.5772 202.395> 176 67<283.544 674> 294 63<92.5772 202.48> 461 67.9531<408.527 539.449> 604 67<0 306.538 372 577 641.479 683> 744.125 66.875<409.443 539.5>
LayerCount: 2
Fore
SplineSet
212 230 m 0
 166 230 129 193 129 147 c 0
 129 102 166 65 212 65 c 0
 257 65 294 102 294 147 c 0
 294 193 257 230 212 230 c 0
176 293 m 1
 95 308 33 380 33 465 c 0
 33 551 95 622 176 637 c 1
 176 674 l 1
 243 674 l 1
 243 637 l 1
 323 621 383 550 383 465 c 0
 383 381 323 310 243 294 c 1
 243 290 l 1
 308 275 357 216 357 147 c 0
 357 66 291 0 210 0 c 0
 129 0 63 66 63 147 c 0
 63 216 111 274 176 290 c 1
 176 293 l 1
176 362 m 1
 176 569 l 1
 127.314453125 554.137695312 100.953125 509.073242188 100.953125 464.08984375 c 0
 100.953125 421.295898438 124.809570312 378.576171875 176 362 c 1
243 363 m 1
 291.874023438 379.458007812 316.125 422.528320312 316.125 465.54296875 c 0
 316.125 508.779296875 291.624023438 551.958984375 243 568 c 1
 243 363 l 1
EndSplineSet
LCarets2: 1 208
Ligature2: "+VAhbVzB4MG5/bmPb in +MOkwxjDzZYdbVwAA lookup 0-1" n e
EndChar

StartChar: h_i
Encoding: 364 -1 112
Width: 705
Flags: HW
LayerCount: 2
Fore
SplineSet
221.396484375 283.684570312 m 0
 168.057617188 283.684570312 112.82421875 239.428710938 112.82421875 173.779296875 c 0
 112.82421875 118.494140625 161.111328125 67.0693359375 217.33203125 67.0693359375 c 0
 218.303710938 67.0693359375 219.279296875 67.0849609375 220.255859375 67.1162109375 c 0
 221.02734375 67.0986328125 221.798828125 67.0888671875 222.569335938 67.0888671875 c 0
 280.661132812 67.0888671875 329.194335938 116.111328125 329.194335938 173.296875 c 0
 329.194335938 231.614257812 282.540039062 283.684570312 221.396484375 283.684570312 c 0
221.255859375 0.1162109375 m 0
 220.1015625 0.0908203125 218.947265625 0.0791015625 217.79296875 0.0791015625 c 0
 172.956054688 0.0791015625 128.453125 18.9443359375 97.255859375 51.1162109375 c 0
 61.642578125 82.87890625 46 125.34765625 46 168.283203125 c 0
 46 258.19140625 114.594726562 350.149414062 212.05859375 350.149414062 c 0
 213.12109375 350.149414062 214.186523438 350.137695312 215.255859375 350.116210938 c 2
 329 350.116210938 l 1
 329 650 l 5
 435 650 541 650 647 650 c 5
 647 583 l 5
 396.255859375 583 l 5
 396.255859375 350.116210938 l 1
 581.255859375 350.116210938 l 1
 581.255859375 283.116210938 l 1
 396.255859375 283.116210938 l 1
 396.255859375 194.116210938 l 2
 396.719726562 189.06640625 396.947265625 184.010742188 396.947265625 178.96484375 c 0
 396.947265625 87.98828125 323.01953125 0 227.288085938 0 c 0
 225.287109375 0 223.275390625 0.0380859375 221.255859375 0.1162109375 c 0
EndSplineSet
LCarets2: 1 364
Ligature2: "+VAhbVzB4MG5/bmPb in +MOkwxjDzZYdbVwAA lookup 0-1" h i
EndChar

StartChar: h_a
Encoding: 365 -1 113
Width: 657
Flags: HW
LayerCount: 2
Fore
SplineSet
403 67 m 2
 408 67 l 2
 464 67 512 119 512 174 c 0
 512 240 457 284 404 284 c 0
 343 284 296 231 296 173 c 0
 296 116 345 67 403 67 c 2
407 0 m 2
 398 0 l 2
 302 0 228 88 228 179 c 0
 228 184 229 189 229 194 c 2
 229 283 l 1
 44 283 l 1
 44 350 l 1
 229 350 l 1
 229 450 229 550 229 650 c 1
 335 650 441 650 547 650 c 1
 547 583 l 1
 296 583 l 1
 296 350 l 1
 413 350 l 2
 510 350 579 258 579 168 c 0
 579 125 564 83 528 51 c 0
 497 19 452 0 407 0 c 2
EndSplineSet
LCarets2: 1 260
Ligature2: "+VAhbVzB4MG5/bmPb in +MOkwxjDzZYdbVwAA lookup 0-1" h a
EndChar

StartChar: h_u
Encoding: 366 -1 114
Width: 590
Flags: HW
LayerCount: 2
Fore
SplineSet
136 174 m 0
 136 120.774025789 180.32626812 67 243 67 c 0
 307 67 353 118 353 175 c 0
 353 228.272911615 309.802465317 279.733196371 251 283 c 1
 244 283 l 2
 183 283 136 231 136 174 c 0
551 0 m 1
 240 0 l 1
 145 2 69 80 69 175 c 2
 69 650 l 1
 175 650 281 650 387 650 c 1
 387 583 l 1
 136 583 l 1
 136 312 l 1
 166 336 203 350 244 350 c 0
 341 350 420 272 420 175 c 0
 420 134 406 97 382 67 c 1
 551 67 l 1
 551 0 l 1
EndSplineSet
LCarets2: 1 97
Ligature2: "+VAhbVzB4MG5/bmPb in +MOkwxjDzZYdbVwAA lookup 0-1" h u
EndChar

StartChar: h_o
Encoding: 367 -1 115
Width: 843
Flags: HW
LayerCount: 2
Fore
SplineSet
354 283 m 1
 297.029296875 279.834960938 251.875 230.334960938 251.875 174.712890625 c 0
 251.875 118.15625 298.315429688 67 362 67 c 0
 423.469726562 67 468.908203125 119.147460938 468.908203125 174.296875 c 0
 468.908203125 231.185546875 421.997070312 283 361 283 c 2
 354 283 l 1
54 0 m 1
 54 67 l 1
 223 67 l 1
 199 97 185 134 185 175 c 0
 185 272 264 350 361 350 c 0
 402 350 439 336 469 312 c 1
 469 424.666992188 469 537.333007812 469 650 c 1
 575 650 681 650 787 650 c 1
 787 583 l 1
 536 583 l 1
 536 447 536 311 536 175 c 0
 536 80 460 2 365 0 c 1
 54 0 l 1
EndSplineSet
LCarets2: 1 502
Ligature2: "+VAhbVzB4MG5/bmPb in +MOkwxjDzZYdbVwAA lookup 0-1" h o
EndChar

StartChar: h_e
Encoding: 368 -1 116
Width: 570
Flags: HW
LayerCount: 2
Fore
SplineSet
266 583 m 1
 266 515.333007812 266 447.666992188 266 380 c 1
 346 364 406 293 406 209 c 0
 406 124 346 53 266 37 c 1
 266 24.6669921875 266 12.3330078125 266 0 c 1
 199 0 l 1
 199 12.3330078125 199 24.6669921875 199 37 c 1
 118 52 56 123 56 209 c 0
 56 294 118 366 199 381 c 1
 199 470.666992188 199 560.333007812 199 650 c 1
 305 650 411 650 517 650 c 1
 517 583 l 1
 266 583 l 1
266 311 m 1
 266 106 l 1
 315 122 339 165 339 208 c 0
 339 251 315 295 266 311 c 1
199 312 m 1
 148 295 124 253 124 210 c 0
 124 165 150 120 199 105 c 1
 199 312 l 1
EndSplineSet
LCarets2: 1 234
Ligature2: "+VAhbVzB4MG5/bmPb in +MOkwxjDzZYdbVwAA lookup 0-1" h e
EndChar

StartChar: m_i
Encoding: 379 -1 127
Width: 703
Flags: HW
LayerCount: 2
Fore
SplineSet
232.396484375 283.684570312 m 0
 179.057617188 283.684570312 123.82421875 239.428710938 123.82421875 173.779296875 c 0
 123.82421875 118.494140625 172.111328125 67.0693359375 228.33203125 67.0693359375 c 0
 229.303710938 67.0693359375 230.279296875 67.0849609375 231.255859375 67.1162109375 c 0
 232.02734375 67.0986328125 232.798828125 67.0888671875 233.569335938 67.0888671875 c 0
 291.661132812 67.0888671875 340.194335938 116.111328125 340.194335938 173.296875 c 0
 340.194335938 231.614257812 293.540039062 283.684570312 232.396484375 283.684570312 c 0
232.255859375 0.1162109375 m 0
 231.1015625 0.0908203125 229.947265625 0.0791015625 228.79296875 0.0791015625 c 0
 183.956054688 0.0791015625 139.453125 18.9443359375 108.255859375 51.1162109375 c 0
 72.642578125 82.87890625 57 125.34765625 57 168.283203125 c 0
 57 258.19140625 125.594726562 350.149414062 223.05859375 350.149414062 c 0
 224.12109375 350.149414062 225.186523438 350.137695312 226.255859375 350.116210938 c 2
 340 350.116210938 l 1
 340 501 l 1
 591 501 l 1
 591 583 l 1
 340 583 l 1
 340 650 l 1
 658 650 l 1
 658 434 l 1
 407.255859375 434 l 1
 407.255859375 350.116210938 l 1
 592.255859375 350.116210938 l 1
 592.255859375 283.116210938 l 1
 407.255859375 283.116210938 l 1
 407.255859375 194.116210938 l 2
 407.719726562 189.06640625 407.947265625 184.010742188 407.947265625 178.96484375 c 0
 407.947265625 87.98828125 334.01953125 0 238.288085938 0 c 0
 236.287109375 0 234.275390625 0.0380859375 232.255859375 0.1162109375 c 0
EndSplineSet
LCarets2: 1 372
Ligature2: "+VAhbVzB4MG5/bmPb in +MOkwxjDzZYdbVwAA lookup 0-1" m i
EndChar

StartChar: m_a
Encoding: 380 -1 128
Width: 652
Flags: HW
LayerCount: 2
Fore
SplineSet
413 67 m 6
 418 67 l 6
 474 67 522 119 522 174 c 4
 522 240 467 284 414 284 c 4
 353 284 306 231 306 173 c 4
 306 116 355 67 413 67 c 6
417 0 m 6
 408 0 l 6
 312 0 238 88 238 179 c 4
 238 184 239 189 239 194 c 6
 239 283 l 5
 54 283 l 5
 54 350 l 5
 239 350 l 5
 239 501 l 5
 490 501 l 5
 490 583 l 5
 239 583 l 5
 239 650 l 5
 557 650 l 5
 557 434 l 5
 306 434 l 5
 306 350 l 5
 423 350 l 6
 520 350 589 258 589 168 c 4
 589 125 574 83 538 51 c 4
 507 19 462 0 417 0 c 6
EndSplineSet
LCarets2: 1 274
Ligature2: "+VAhbVzB4MG5/bmPb in +MOkwxjDzZYdbVwAA lookup 0-1" m a
EndChar

StartChar: m_u
Encoding: 381 -1 129
Width: 593
Flags: HW
LayerCount: 2
Fore
SplineSet
136 174 m 4
 136 120.774025789 180.32626812 67 243 67 c 4
 307 67 353 118 353 175 c 4
 353 228.272911615 309.802465317 279.733196371 251 283 c 5
 244 283 l 6
 183 283 136 231 136 174 c 4
551 0 m 5
 240 0 l 5
 145 2 69 80 69 175 c 6
 69 501 l 5
 320 501 l 5
 320 583 l 5
 69 583 l 5
 69 650 l 5
 387 650 l 5
 387 434 l 5
 136 434 l 5
 136 312 l 5
 166 336 203 350 244 350 c 4
 341 350 420 272 420 175 c 4
 420 134 406 97 382 67 c 5
 551 67 l 5
 551 0 l 5
EndSplineSet
LCarets2: 1 100
Ligature2: "+VAhbVzB4MG5/bmPb in +MOkwxjDzZYdbVwAA lookup 0-1" m u
EndChar

StartChar: m_o
Encoding: 382 -1 130
Width: 827
Flags: HW
LayerCount: 2
Fore
SplineSet
344 283 m 1
 287.029296875 279.834960938 241.875 230.334960938 241.875 174.712890625 c 0
 241.875 118.15625 288.315429688 67 352 67 c 0
 413.469726562 67 458.908203125 119.147460938 458.908203125 174.296875 c 0
 458.908203125 231.185546875 411.997070312 283 351 283 c 2
 344 283 l 1
44 0 m 1
 44 67 l 1
 213 67 l 1
 189 97 175 134 175 175 c 0
 175 272 254 350 351 350 c 0
 392 350 429 336 459 312 c 1
 459 375 459 438 459 501 c 1
 710 501 l 1
 710 583 l 1
 459 583 l 1
 459 650 l 1
 777 650 l 1
 777 434 l 1
 526 434 l 1
 526 347.666992188 526 261.333007812 526 175 c 0
 526 80 450 2 355 0 c 1
 44 0 l 1
EndSplineSet
LCarets2: 1 498
Ligature2: "+VAhbVzB4MG5/bmPb in +MOkwxjDzZYdbVwAA lookup 0-1" m o
EndChar

StartChar: m_e
Encoding: 383 -1 131
Width: 549
Flags: HW
LayerCount: 2
Fore
SplineSet
246 380 m 1
 326 364 386 293 386 209 c 0
 386 124 326 53 246 37 c 1
 246 0 l 1
 179 0 l 1
 179 37 l 1
 98 52 36 123 36 209 c 0
 36 294 98 366 179 381 c 1
 179 421 179 461 179 501 c 1
 430 501 l 1
 430 583 l 1
 179 583 l 1
 179 650 l 1
 497 650 l 1
 497 434 l 1
 246 434 l 1
 246 380 l 1
246 311 m 1
 246 106 l 1
 295 122 319 165 319 208 c 0
 319 251 295 295 246 311 c 1
179 312 m 1
 128 295 104 253 104 210 c 0
 104 165 130 120 179 105 c 1
 179 312 l 1
EndSplineSet
LCarets2: 1 211
Ligature2: "+VAhbVzB4MG5/bmPb in +MOkwxjDzZYdbVwAA lookup 0-1" m e
EndChar

StartChar: r_i
Encoding: 394 -1 142
Width: 636
Flags: HW
LayerCount: 2
Fore
SplineSet
218.396484375 283.684570312 m 0
 165.057617188 283.684570312 109.82421875 239.428710938 109.82421875 173.779296875 c 0
 109.82421875 118.494140625 158.111328125 67.0693359375 214.33203125 67.0693359375 c 0
 215.303710938 67.0693359375 216.279296875 67.0849609375 217.255859375 67.1162109375 c 0
 218.02734375 67.0986328125 218.798828125 67.0888671875 219.569335938 67.0888671875 c 0
 277.661132812 67.0888671875 326.194335938 116.111328125 326.194335938 173.296875 c 0
 326.194335938 231.614257812 279.540039062 283.684570312 218.396484375 283.684570312 c 0
218.255859375 0.1162109375 m 0
 217.1015625 0.0908203125 215.947265625 0.0791015625 214.79296875 0.0791015625 c 0
 169.956054688 0.0791015625 125.453125 18.9443359375 94.255859375 51.1162109375 c 0
 58.642578125 82.87890625 43 125.34765625 43 168.283203125 c 0
 43 258.19140625 111.594726562 350.149414062 209.05859375 350.149414062 c 0
 210.12109375 350.149414062 211.186523438 350.116210938 212.255859375 350.116210938 c 0
 250.255859375 350.116210938 288 350 326 350 c 1
 326 380 326 410 326 440 c 1
 196 440 l 1
 196 652 l 1
 263 652 l 1
 263 507 l 1
 284 507 305 507 326 507 c 1
 326 650 l 1
 526 650 l 1
 526 440 l 1
 393 440 l 1
 393 410 393 380 393 350 c 1
 578.255859375 350.116210938 l 1
 578.255859375 283.116210938 l 1
 393.255859375 283.116210938 l 1
 393.255859375 194.116210938 l 2
 393.719726562 189.06640625 393.947265625 184.010742188 393.947265625 178.96484375 c 4
 393.947265625 87.98828125 320.01953125 0 224.288085938 0 c 0
 222.287109375 0 220.275390625 0.0380859375 218.255859375 0.1162109375 c 0
459 507 m 1
 459 532 459 557 459 582 c 1
 393 582 l 1
 393 507 l 1
 415 507 437 507 459 507 c 1
EndSplineSet
LCarets2: 1 362
Ligature2: "+VAhbVzB4MG5/bmPb in +MOkwxjDzZYdbVwAA lookup 0-1" r i
EndChar

StartChar: r_a
Encoding: 395 -1 143
Width: 611
Flags: HW
LayerCount: 2
Fore
SplineSet
390 67 m 2
 395 67 l 2
 451 67 499 119 499 174 c 0
 499 240 444 284 391 284 c 0
 330 284 283 231 283 173 c 0
 283 116 332 67 390 67 c 2
394 0 m 2
 385 0 l 2
 289 0 215 88 215 179 c 0
 215 184 216 189 216 194 c 0
 216 223.666992188 216 253.333007812 216 283 c 1
 31 283 l 1
 31 350 l 1
 216 350 l 1
 216 440 l 1
 86 440 l 1
 86 652 l 1
 153 652 l 1
 153 507 l 1
 174 507 195 507 216 507 c 1
 216 554.666992188 216 602.333007812 216 650 c 1
 416 650 l 1
 416 440 l 1
 283 440 l 1
 283 350 l 1
 400 350 l 2
 497 350 566 258 566 168 c 0
 566 125 551 83 515 51 c 0
 484 19 439 0 394 0 c 2
349 507 m 1
 349 532 349 557 349 582 c 1
 283 582 l 1
 283 557 283 532 283 507 c 1
 305 507 327 507 349 507 c 1
EndSplineSet
LCarets2: 1 247
Ligature2: "+VAhbVzB4MG5/bmPb in +MOkwxjDzZYdbVwAA lookup 0-1" r a
EndChar

StartChar: r_u
Encoding: 396 -1 144
Width: 710
Flags: HW
LayerCount: 2
Fore
SplineSet
253 174 m 0
 253 120.774025789 297.32626812 67 360 67 c 0
 424 67 470 118 470 175 c 0
 470 228.272911615 426.802465317 279.733196371 368 283 c 1
 361 283 l 2
 300 283 253 231 253 174 c 0
668 0 m 1
 357 0 l 1
 262 2 186 80 186 175 c 0
 186 263.333333333 186 351.666666667 186 440 c 1
 56 440 l 1
 56 652 l 1
 123 652 l 1
 123 507 l 1
 144 507 165 507 186 507 c 1
 186 554.666666667 186 602.333333333 186 650 c 1
 386 650 l 1
 386 440 l 1
 253 440 l 1
 253 312 l 1
 283 336 320 350 361 350 c 0
 458 350 537 272 537 175 c 0
 537 134 523 97 499 67 c 1
 668 67 l 1
 668 0 l 1
319 507 m 1
 319 532 319 557 319 582 c 1
 253 582 l 1
 253 557 253 532 253 507 c 1
 275 507 297 507 319 507 c 1
EndSplineSet
LCarets2: 1 222
Ligature2: "+VAhbVzB4MG5/bmPb in +MOkwxjDzZYdbVwAA lookup 0-1" r u
EndChar

StartChar: r_o
Encoding: 397 -1 145
Width: 715
Flags: HW
LayerCount: 2
Fore
SplineSet
341 283 m 1
 284.029296875 279.834960938 238.875 230.334960938 238.875 174.712890625 c 0
 238.875 118.15625 285.315429688 67 349 67 c 0
 410.469726562 67 455.908203125 119.147460938 455.908203125 174.296875 c 0
 455.908203125 231.185546875 408.997070312 283 348 283 c 2
 341 283 l 1
41 0 m 1
 41 67 l 1
 210 67 l 1
 186 97 172 134 172 175 c 0
 172 272 251 350 348 350 c 0
 389 350 426 336 456 312 c 1
 456 440 l 1
 326 440 l 1
 326 652 l 1
 393 652 l 1
 393 507 l 1
 414 507 435 507 456 507 c 1
 456 554.666992188 456 602.333007812 456 650 c 1
 656 650 l 1
 656 440 l 1
 523 440 l 1
 523 351.666992188 523 263.333007812 523 175 c 0
 523 80 447 2 352 0 c 1
 41 0 l 1
589 507 m 1
 589 532 589 557 589 582 c 1
 523 582 l 1
 523 557 523 532 523 507 c 1
 545 507 567 507 589 507 c 1
EndSplineSet
LCarets2: 1 491
Ligature2: "+VAhbVzB4MG5/bmPb in +MOkwxjDzZYdbVwAA lookup 0-1" r o
EndChar

StartChar: r_e
Encoding: 398 -1 146
Width: 454
Flags: HW
LayerCount: 2
Fore
SplineSet
319 507 m 1
 319 532 319 557 319 582 c 1
 253 582 l 1
 253 507 l 1
 275 507 297 507 319 507 c 1
253 311 m 1
 253 106 l 1
 302 122 326 165 326 208 c 0
 326 251 302 295 253 311 c 1
253 380 m 1
 333 364 393 293 393 209 c 0
 393 124 333 53 253 37 c 1
 253 0 l 1
 186 0 l 1
 186 37 l 1
 105 52 43 123 43 209 c 0
 43 294 105 366 186 381 c 1
 186 440 l 1
 56 440 l 1
 56 652 l 1
 123 652 l 1
 123 507 l 1
 144 507 165 507 186 507 c 1
 186 554.666666667 186 602.333333333 186 650 c 1
 386 650 l 1
 386 440 l 1
 253 440 l 1
 253 380 l 1
186 312 m 1
 135 295 111 253 111 210 c 0
 111 165 137 120 186 105 c 1
 186 312 l 1
EndSplineSet
LCarets2: 1 217
Ligature2: "+VAhbVzB4MG5/bmPb in +MOkwxjDzZYdbVwAA lookup 0-1" r e
EndChar

StartChar: p_i
Encoding: 409 -1 157
Width: 635
Flags: HW
LayerCount: 2
Fore
SplineSet
226.396484375 283.684570312 m 0
 173.057617188 283.684570312 117.82421875 239.428710938 117.82421875 173.779296875 c 0
 117.82421875 118.494140625 166.111328125 67.0693359375 222.33203125 67.0693359375 c 0
 223.303710938 67.0693359375 224.279296875 67.0849609375 225.255859375 67.1162109375 c 0
 226.02734375 67.0986328125 226.798828125 67.0888671875 227.569335938 67.0888671875 c 0
 285.661132812 67.0888671875 334.194335938 116.111328125 334.194335938 173.296875 c 0
 334.194335938 231.614257812 287.540039062 283.684570312 226.396484375 283.684570312 c 0
226.255859375 0.1162109375 m 0
 225.1015625 0.0908203125 223.947265625 0.0791015625 222.79296875 0.0791015625 c 0
 177.956054688 0.0791015625 133.453125 18.9443359375 102.255859375 51.1162109375 c 0
 66.642578125 82.87890625 51 125.34765625 51 168.283203125 c 0
 51 258.19140625 119.594726562 350.149414062 217.05859375 350.149414062 c 0
 218.12109375 350.149414062 219.186523438 350.137695312 220.255859375 350.116210938 c 2
 334 350.116210938 l 1
 334 384 l 1
 269 399 221 457 221 527 c 0
 221 608 287 674 368 674 c 0
 449 674 515 608 515 527 c 0
 515 457.091796875 466.12890625 399.15234375 401.255859375 384.059570312 c 1
 401.255859375 350.116210938 l 1
 586.255859375 350.116210938 l 1
 586.255859375 283.116210938 l 1
 401.255859375 283.116210938 l 1
 401.255859375 194.116210938 l 2
 401.719726562 189.06640625 401.947265625 184.010742188 401.947265625 178.96484375 c 0
 401.947265625 87.98828125 328.01953125 0 232.288085938 0 c 0
 230.287109375 0 228.275390625 0.0380859375 226.255859375 0.1162109375 c 0
370 444 m 0
 415 444 452 481 452 526 c 0
 452 572 415 609 370 609 c 0
 324 609 287 572 287 526 c 0
 287 481 324 444 370 444 c 0
EndSplineSet
LCarets2: 1 367
Ligature2: "+VAhbVzB4MG5/bmPb in +MOkwxjDzZYdbVwAA lookup 0-1" p i
EndChar

StartChar: p_a
Encoding: 410 -1 158
Width: 630
Flags: HW
LayerCount: 2
Fore
SplineSet
408 67 m 2
 413 67 l 2
 469 67 517 119 517 174 c 0
 517 240 462 284 409 284 c 0
 348 284 301 231 301 173 c 0
 301 116 350 67 408 67 c 2
412 0 m 2
 403 0 l 2
 307 0 234 88 234 179 c 0
 234 213.666992188 234 248.333007812 234 283 c 1
 49 283 l 1
 49 350 l 1
 234 350 l 1
 234 384 l 1
 169 399 121 457 121 527 c 0
 121 608 187 674 268 674 c 0
 349 674 415 608 415 527 c 0
 415 457 366 399 301 384 c 1
 301 350 l 1
 418 350 l 2
 515 350 584 258 584 168 c 0
 584 125 569 83 533 51 c 0
 502 19 457 0 412 0 c 2
270 444 m 0
 315 444 352 481 352 526 c 0
 352 572 315 609 270 609 c 0
 224 609 187 572 187 526 c 0
 187 481 224 444 270 444 c 0
EndSplineSet
LCarets2: 1 269
Ligature2: "+VAhbVzB4MG5/bmPb in +MOkwxjDzZYdbVwAA lookup 0-1" p a
EndChar

StartChar: p_u
Encoding: 411 -1 159
Width: 694
Flags: HW
LayerCount: 2
Fore
SplineSet
231 174 m 0
 231 120.774025789 275.32626812 67 338 67 c 0
 402 67 448 118 448 175 c 0
 448 228.272911615 404.802465317 279.733196371 346 283 c 1
 339 283 l 2
 278 283 231 231 231 174 c 0
646 0 m 1
 335 0 l 1
 240 2 164 80 164 175 c 0
 164 244.666666667 164 314.333333333 164 384 c 1
 99 399 51 457 51 527 c 0
 51 608 117 674 198 674 c 0
 279 674 345 608 345 527 c 0
 345 457 296 399 231 384 c 1
 231 312 l 1
 261 336 298 350 339 350 c 0
 436 350 515 272 515 175 c 0
 515 134 501 97 477 67 c 1
 646 67 l 1
 646 0 l 1
200 444 m 0
 245 444 282 481 282 526 c 0
 282 572 245 609 200 609 c 0
 154 609 117 572 117 526 c 0
 117 481 154 444 200 444 c 0
EndSplineSet
LCarets2: 1 196
Ligature2: "+VAhbVzB4MG5/bmPb in +MOkwxjDzZYdbVwAA lookup 0-1" p u
EndChar

StartChar: p_o
Encoding: 412 -1 160
Width: 695
Flags: HW
LayerCount: 2
Fore
SplineSet
349 283 m 1
 292.029296875 279.834960938 246.875 230.334960938 246.875 174.712890625 c 0
 246.875 118.15625 293.315429688 67 357 67 c 0
 418.469726562 67 463.908203125 119.147460938 463.908203125 174.296875 c 0
 463.908203125 231.185546875 416.997070312 283 356 283 c 2
 349 283 l 1
49 0 m 1
 49 67 l 1
 218 67 l 1
 194 97 180 134 180 175 c 0
 180 272 259 350 356 350 c 0
 397 350 434 336 464 312 c 1
 464 336 464 360 464 384 c 1
 399 399 351 457 351 527 c 0
 351 608 417 674 498 674 c 0
 579 674 645 608 645 527 c 0
 645 457 596 399 531 384 c 1
 531 175 l 2
 531 80 455 2 360 0 c 1
 49 0 l 1
500 444 m 0
 545 444 582 481 582 526 c 0
 582 572 545 609 500 609 c 0
 454 609 417 572 417 526 c 0
 417 481 454 444 500 444 c 0
EndSplineSet
LCarets2: 1 498
Ligature2: "+VAhbVzB4MG5/bmPb in +MOkwxjDzZYdbVwAA lookup 0-1" p o
EndChar

StartChar: p_e
Encoding: 413 -1 161
Width: 401
Flags: HW
LayerCount: 2
Fore
SplineSet
200 444 m 0
 245 444 282 481 282 526 c 0
 282 572 245 609 200 609 c 0
 154 609 117 572 117 526 c 0
 117 481 154 444 200 444 c 0
231 380 m 1
 311 364 371 293 371 209 c 0
 371 124 311 53 231 37 c 1
 231 0 l 1
 164 0 l 1
 164 37 l 1
 83 52 21 123 21 209 c 0
 21 294 83 366 164 381 c 1
 164 384 l 1
 99 399 51 457 51 527 c 0
 51 608 117 674 198 674 c 0
 279 674 345 608 345 527 c 0
 345 457 296 399 231 384 c 1
 231 380 l 1
231 311 m 1
 231 106 l 1
 280 122 304 165 304 208 c 0
 304 251 280 295 231 311 c 1
164 312 m 1
 113 295 89 253 89 210 c 0
 89 165 115 120 164 105 c 1
 164 312 l 1
EndSplineSet
LCarets2: 1 196
Ligature2: "+VAhbVzB4MG5/bmPb in +MOkwxjDzZYdbVwAA lookup 0-1" p e
EndChar

StartChar: w_i
Encoding: 439 -1 187
Width: 680
VWidth: 0
Flags: HW
HStem: -199 33<90.1172 164.495> -63 33<90.1895 164.931> 0 21G<94 161.016 716 783> 0 21G<94 161.016 716 783> 325 67<543.549 671.076> 608 67<301 470 544.004 671.02> 619 20G<94 161.016>
VStem: 43 33<-150.623 -77.1431 -48 -29> 94 67.0156<0 639> 180 32<-149.005 -78.8774 -48 -28> 432 66.875<435.943 563.33> 716 67<0 363 437.016 563.236>
LayerCount: 2
Fore
SplineSet
570 -28 m 5
 602 -28 l 5
 602 -114 l 6
 602 -161 564 -199 518 -199 c 4
 472 -199 435 -162 433 -117 c 5
 433 -29 l 5
 466 -29 l 5
 466 -48 l 5
 480 -36 498 -30 518 -30 c 4
 537 -30 555 -36 570 -48 c 5
 570 -28 l 5
517 -63 m 4
 489 -63 466 -86 466 -114 c 4
 466 -142 489 -166 517 -166 c 4
 546 -166 569 -142 569 -114 c 4
 569 -86 546 -63 517 -63 c 4
71 675 m 1xedf0
 382 675 l 1
 477 673 553 595 553 500 c 2
 553 0 l 1
 486 0 l 1
 486 363 l 1
 456 339 419 325 378 325 c 0
 281 325 202 403 202 500 c 0
 202 541 216 578 240 608 c 1
 71 608 l 1
 71 675 l 1xedf0
485.908203125 500.703125 m 0
 485.908203125 555.850991228 440.470899725 608 379 608 c 0
 315.315429688 608 268.875 556.84375 268.875 500.287109375 c 0
 268.875 444.664756118 314.029461877 395.165029896 371 392 c 1
 378 392 l 2
 438.997070312 392 485.908203125 443.814453125 485.908203125 500.703125 c 0
EndSplineSet
LCarets2: 1 0
Ligature2: "+VAhbVzB4MG5/bmPb in +MOkwxjDzZYdbVwAA lookup 0-1" w i
EndChar

StartChar: w_a
Encoding: 440 -1 188
Width: 595
VWidth: 0
Flags: HW
HStem: -199 33<90.1172 164.495> -63 33<90.1895 164.931> 0 21G<94 161.016 324 392> 0 21G<94 161.016 324 392> 312 64<435.288 566.833> 583 65<437.457 566.793 640 810> 619 20G<94 161.016>
VStem: 43 33<-150.623 -77.1431 -48 -29> 94 67.0156<0 639> 180 32<-149.005 -78.8774 -48 -28> 324 68<0 348 418.657 540.488> 610.896 67.1045<420.914 539.966>
LayerCount: 2
Fore
SplineSet
140 -28 m 5
 172 -28 l 5
 172 -114 l 6
 172 -161 134 -199 88 -199 c 4
 42 -199 5 -162 3 -117 c 5
 3 -29 l 5
 36 -29 l 5
 36 -48 l 5
 50 -36 68 -30 88 -30 c 4
 107 -30 125 -36 140 -48 c 5
 140 -28 l 5
87 -63 m 4
 59 -63 36 -86 36 -114 c 4
 36 -142 59 -166 87 -166 c 4
 116 -166 139 -142 139 -114 c 4
 139 -86 116 -63 87 -63 c 4
540 648 m 1xedf0
 540 583 l 1
 370 583 l 1
 394 555 408 519 408 480 c 0
 408 387 329 312 231 312 c 0
 190 312 152 325 122 348 c 1
 122 0 l 1
 54 0 l 1
 54 478 l 1
 55 478 l 1
 55 480 l 2
 55 571 131 645 227 648 c 1
 540 648 l 1xedf0
340.895507812 478.869140625 m 0
 340.895507812 531.922862803 293.458824662 583 235 583 c 2
 230 583 l 2
 176.370117188 583 121.884765625 541.10546875 121.884765625 480.243164062 c 0
 121.884765625 417.063108387 177.089150406 376 231 376 c 0
 303.5703125 376 340.895507812 437.091796875 340.895507812 478.869140625 c 0
EndSplineSet
LCarets2: 1 0
Ligature2: "+VAhbVzB4MG5/bmPb in +MOkwxjDzZYdbVwAA lookup 0-1" w a
EndChar

StartChar: w_u
Encoding: 441 -1 189
Width: 641
VWidth: 0
Flags: HW
HStem: -199 33<90.1172 164.495> -63 33<90.1895 164.931> 0 21G<94 161.016 488 555> 0 21G<94 161.016 488 555> 357 67<304 489 600.757 728.089> 619 20G<94 161.016> 640 67<599.233 727.77>
VStem: 43 33<-150.623 -77.1431 -48 -29> 94 67.0156<0 639> 180 32<-149.005 -78.8774 -48 -28> 489 67.0615<0 357 468.91 594.495> 772.432 66.8242<468.038 595.787>
LayerCount: 2
Fore
SplineSet
398.859375 423.431640625 m 4
 452.198242188 423.431640625 507.431640625 467.6875 507.431640625 533.336914062 c 4
 507.431640625 588.622070312 459.14453125 640.046875 402.923828125 640.046875 c 4
 401.952148438 640.046875 400.9765625 640.03125 400 640 c 4
 399.228515625 640.017578125 398.45703125 640.02734375 397.686523438 640.02734375 c 4
 339.594726562 640.02734375 291.061523438 591.004882812 291.061523438 533.819335938 c 4
 291.061523438 475.501953125 337.715820312 423.431640625 398.859375 423.431640625 c 4
574.255859375 538.833007812 m 4
 574.255859375 448.924804688 505.661132812 356.966796875 408.197265625 356.966796875 c 4
 407.134765625 356.966796875 406.069335938 356.978515625 405 357 c 4
 367 357 329 357 291 357 c 5
 291 228 290 129 290 0 c 5
 223 0 l 5
 223 129 224 228 224 357 c 5
 39 357 l 5
 39 424 l 5
 224 424 l 5
 224 513 l 6
 223.536132812 518.049804688 223.30859375 523.10546875 223.30859375 528.151367188 c 4
 223.30859375 762.615751022 574.255859375 758.914904412 574.255859375 538.833007812 c 4
257 -63 m 4
 229 -63 206 -86 206 -114 c 4
 206 -142 229 -166 257 -166 c 4
 286 -166 309 -142 309 -114 c 4
 309 -86 286 -63 257 -63 c 4
310 -28 m 5
 342 -28 l 5
 342 -114 l 6
 342 -161 304 -199 258 -199 c 4
 212 -199 175 -162 173 -117 c 5
 173 -29 l 5
 206 -29 l 5
 206 -48 l 5
 220 -36 238 -30 258 -30 c 4
 277 -30 295 -36 310 -48 c 5
 310 -28 l 5
EndSplineSet
LCarets2: 1 0
Ligature2: "+VAhbVzB4MG5/bmPb in +MOkwxjDzZYdbVwAA lookup 0-1" w u
EndChar

StartChar: w_o
Encoding: 442 -1 190
Width: 641
VWidth: 0
Flags: HW
HStem: -199 33<90.1172 164.495> -63 33<90.1895 164.931> 0 21G<94 161.016 591.812 658.812> 0 21G<94 161.016 591.812 658.812> 343 67<419.724 547.055 658.812 843.812> 619 20G<94 161.016> 626 67<420.041 548.58>
VStem: 43 33<-150.623 -77.1431 -48 -29> 94 67.0156<0 639> 180 32<-149.005 -78.8774 -48 -28> 309 66.3799<454.049 581.796> 591.812 67<0 343 454.91 580.495>
LayerCount: 2
Fore
SplineSet
411 -28 m 1
 443 -28 l 1
 443 -114 l 2
 443 -161 405 -199 359 -199 c 0
 313 -199 276 -162 274 -117 c 1
 274 -29 l 1
 307 -29 l 1
 307 -48 l 1
 321 -36 339 -30 359 -30 c 0
 378 -30 396 -36 411 -48 c 1
 411 -28 l 1
358 -63 m 0
 330 -63 307 -86 307 -114 c 0
 307 -142 330 -166 358 -166 c 0
 387 -166 410 -142 410 -114 c 0
 410 -86 387 -63 358 -63 c 0
216.8125 693 m 0xebf0
 218.83203125 693.078125 220.842773438 693.116210938 222.844726562 693.116210938 c 0
 318.576171875 693.116210938 392.502929688 605.127929688 392.502929688 514.151367188 c 0
 392.502929688 509.10546875 392.276367188 504.049804688 391.8125 499 c 2
 391.8125 410 l 1
 576.8125 410 l 1
 576.8125 343 l 1
 391.8125 343 l 1
 391.8125 0 l 1
 324.8125 0 l 1
 324.8125 343 l 1
 286.8125 343 248.8125 343 210.8125 343 c 0
 209.743164062 342.978515625 208.677734375 342.966796875 207.615234375 342.966796875 c 0
 110.1484375 342.966796875 42 434.948242188 42 524.8671875 c 0
 42 567.791015625 57.529296875 610.245117188 92.8125 642 c 0
 124.008789062 674.171875 168.512695312 693.037109375 213.349609375 693.037109375 c 0
 214.50390625 693.037109375 215.658203125 693.025390625 216.8125 693 c 0xebf0
324.75 519.819335938 m 0
 324.75 577.001953125 276.21875 626.02734375 218.125976562 626.02734375 c 0
 217.35546875 626.02734375 216.583984375 626.017578125 215.8125 626 c 0
 214.834960938 626.03125 213.860351562 626.046875 212.887695312 626.046875 c 0
 156.66796875 626.046875 108.379882812 574.622070312 108.379882812 519.336914062 c 0
 108.379882812 453.685546875 163.616210938 409.431640625 216.953125 409.431640625 c 0
 278.094726562 409.431640625 324.75 461.5 324.75 519.819335938 c 0
EndSplineSet
LCarets2: 1 0
Ligature2: "+VAhbVzB4MG5/bmPb in +MOkwxjDzZYdbVwAA lookup 0-1" w o
EndChar

StartChar: w_e
Encoding: 443 -1 191
Width: 438
VWidth: 0
Flags: HW
HStem: -199 33<90.1172 164.495> -63 33<90.1895 164.931> 0 21G<94 161.016 451 518> 0 21G<94 161.016 451 518> 302 69<414.587 451> 578 68<414.587 451> 619 20G<94 161.016 451 518>
VStem: 43 33<-150.623 -77.1431 -48 -29> 94 67.0156<0 639> 180 32<-149.005 -78.8774 -48 -28> 308 67.9531<408.527 539.449> 451 67<0 306.538 372 577 641.479 683> 591.125 66.875<409.443 539.5>
LayerCount: 2
Fore
SplineSet
270 -28 m 1
 302 -28 l 1
 302 -114 l 2
 302 -161 264 -199 218 -199 c 0
 172 -199 135 -162 133 -117 c 1
 133 -29 l 1
 166 -29 l 1
 166 -48 l 1
 180 -36 198 -30 218 -30 c 0
 237 -30 255 -36 270 -48 c 1
 270 -28 l 1
217 -63 m 0
 189 -63 166 -86 166 -114 c 0
 166 -142 189 -166 217 -166 c 0
 246 -166 269 -142 269 -114 c 0
 269 -86 246 -63 217 -63 c 0
184 683 m 1
 251 683 l 1
 251 646 l 1
 331 630 391 559 391 474 c 0
 391 390 331 319 251 303 c 1
 251 0 l 1
 184 0 l 1
 184 302 l 1
 103 317 41 389 41 474 c 0
 41 560 103 631 184 646 c 1xedf8
 184 683 l 1
184 578 m 1
 135.314453125 563.137695312 108.953125 518.073242188 108.953125 473.08984375 c 0
 108.953125 430.295898438 132.809570312 387.576171875 184 371 c 1
 184 578 l 1
251 577 m 1
 251 372 l 1
 299.874023438 388.458007812 324.125 431.528320312 324.125 474.54296875 c 0
 324.125 517.779296875 299.624023438 560.958984375 251 577 c 1
EndSplineSet
LCarets2: 1 0
Ligature2: "+VAhbVzB4MG5/bmPb in +MOkwxjDzZYdbVwAA lookup 0-1" w e
EndChar

StartChar: y_i
Encoding: 444 -1 192
Width: 609
VWidth: 0
Flags: HW
HStem: -198 33<163.005 236.866> -61 33<43 134 163.125 236 267 357> 0 21G<165 232.016 859 926> 0 21G<165 232.016 859 926> 325 67<686.549 814.076> 608 67<444 613 687.004 814.02> 619 20G<165 232.016>
VStem: 116 32<-149.688 -76.6098> 165 67.0156<0 639> 251 34<-150.557 -75.3722> 575 66.875<435.943 563.33> 859 67<0 363 437.016 563.236>
LayerCount: 2
Fore
SplineSet
203 -28 m 1
 517 -28 l 1
 517 -61 l 1
 427 -61 l 1
 438 -75 445 -94 445 -113 c 0
 445 -160 407 -198 360 -198 c 0
 314 -198 276 -160 276 -113 c 0
 276 -94 283 -75 294 -61 c 1
 203 -61 l 1
 203 -28 l 1
360 -62 m 0
 331 -62 308 -85 308 -113 c 0
 308 -141 331 -165 360 -165 c 0
 388 -165 411 -141 411 -113 c 0
 411 -85 388 -62 360 -62 c 0
64 675 m 1xedf0
 375 675 l 1
 470 673 546 595 546 500 c 2
 546 0 l 1
 479 0 l 1
 479 363 l 1
 449 339 412 325 371 325 c 0
 274 325 195 403 195 500 c 0
 195 541 209 578 233 608 c 1
 64 608 l 1
 64 675 l 1xedf0
478.908203125 500.703125 m 0
 478.908203125 555.850991228 433.470899725 608 372 608 c 0
 308.315429688 608 261.875 556.84375 261.875 500.287109375 c 0
 261.875 444.664756118 307.029461877 395.165029896 364 392 c 1
 371 392 l 2
 431.997070312 392 478.908203125 443.814453125 478.908203125 500.703125 c 0
EndSplineSet
LCarets2: 1 0
Ligature2: "+VAhbVzB4MG5/bmPb in +MOkwxjDzZYdbVwAA lookup 0-1" y i
EndChar

StartChar: y_a
Encoding: 445 -1 193
Width: 598
VWidth: 0
Flags: HW
HStem: -198 33<163.005 236.866> -61 33<43 134 163.125 236 267 357> 0 21G<165 232.016 467 535> 0 21G<165 232.016 467 535> 312 64<578.288 709.833> 583 65<580.457 709.793 783 953> 619 20G<165 232.016>
VStem: 116 32<-149.688 -76.6098> 165 67.0156<0 639> 251 34<-150.557 -75.3722> 467 68<0 348 418.657 540.488> 753.896 67.1045<420.914 539.966>
LayerCount: 2
Fore
SplineSet
73 -28 m 1
 387 -28 l 1
 387 -61 l 1
 297 -61 l 1
 308 -75 315 -94 315 -113 c 0
 315 -160 277 -198 230 -198 c 0
 184 -198 146 -160 146 -113 c 0
 146 -94 153 -75 164 -61 c 1
 73 -61 l 1
 73 -28 l 1
230 -62 m 0
 201 -62 178 -85 178 -113 c 0
 178 -141 201 -165 230 -165 c 0
 258 -165 281 -141 281 -113 c 0
 281 -85 258 -62 230 -62 c 0
543 648 m 1xedf0
 543 583 l 1
 373 583 l 1
 397 555 411 519 411 480 c 0
 411 387 332 312 234 312 c 0
 193 312 155 325 125 348 c 1
 125 0 l 1
 57 0 l 1
 57 478 l 1
 58 478 l 1
 58 480 l 2
 58 571 134 645 230 648 c 1
 543 648 l 1xedf0
343.895507812 478.869140625 m 0
 343.895507812 531.922851562 296.458984375 583 238 583 c 2
 233 583 l 2
 179.370117188 583 124.884765625 541.10546875 124.884765625 480.243164062 c 0
 124.884765625 417.063476562 180.088867188 376 234 376 c 0
 306.5703125 376 343.895507812 437.091796875 343.895507812 478.869140625 c 0
EndSplineSet
LCarets2: 1 0
Ligature2: "+VAhbVzB4MG5/bmPb in +MOkwxjDzZYdbVwAA lookup 0-1" y a
EndChar

StartChar: y_u
Encoding: 446 -1 194
Width: 650
VWidth: 0
Flags: HW
HStem: -198 33<163.005 236.866> -61 33<43 134 163.125 236 267 357> 0 21G<165 232.016 631 698> 0 21G<165 232.016 631 698> 357 67<447 632 743.757 871.089> 619 20G<165 232.016> 640 67<742.233 870.77>
VStem: 116 32<-149.688 -76.6098> 165 67.0156<0 639> 251 34<-150.557 -75.3722> 632 67.0615<0 357 468.91 594.495> 915.432 66.8242<468.038 595.787>
LayerCount: 2
Fore
SplineSet
213 -28 m 1
 527 -28 l 1
 527 -61 l 1
 437 -61 l 1
 448 -75 455 -94 455 -113 c 0
 455 -160 417 -198 370 -198 c 0
 324 -198 286 -160 286 -113 c 0
 286 -94 293 -75 304 -61 c 1
 213 -61 l 1
 213 -28 l 1
370 -62 m 0
 341 -62 318 -85 318 -113 c 0
 318 -141 341 -165 370 -165 c 0
 398 -165 421 -141 421 -113 c 0
 421 -85 398 -62 370 -62 c 0
407 707 m 0
 408.154296875 707.025390625 409.30859375 707.037109375 410.462890625 707.037109375 c 0
 455.299804688 707.037109375 499.802734375 688.171875 531 656 c 0
 566.61328125 624.237304688 582.255859375 581.768554688 582.255859375 538.833007812 c 0
 582.255859375 448.924804688 513.661132812 356.966796875 416.197265625 356.966796875 c 0
 415.134765625 356.966796875 414.069335938 356.978515625 413 357 c 0
 375 357 337 357 299 357 c 1
 299 228 298 129 298 0 c 1
 231 0 l 1
 231 129 232 228 232 357 c 1
 47 357 l 1
 47 424 l 1
 232 424 l 1
 232 513 l 2
 231.536132812 518.049804688 231.30859375 523.10546875 231.30859375 528.151367188 c 0
 231.30859375 619.127929688 305.236328125 707.116210938 400.967773438 707.116210938 c 0
 402.96875 707.116210938 404.98046875 707.078125 407 707 c 0
406.859375 423.431640625 m 0
 460.198242188 423.431640625 515.431640625 467.6875 515.431640625 533.336914062 c 0
 515.431640625 588.622070312 467.14453125 640.046875 410.923828125 640.046875 c 0
 409.952148438 640.046875 408.9765625 640.03125 408 640 c 0
 407.228515625 640.017578125 406.45703125 640.02734375 405.686523438 640.02734375 c 0
 347.594726562 640.02734375 299.061523438 591.004882812 299.061523438 533.819335938 c 0
 299.061523438 475.501953125 345.715820312 423.431640625 406.859375 423.431640625 c 0
EndSplineSet
LCarets2: 1 0
Ligature2: "+VAhbVzB4MG5/bmPb in +MOkwxjDzZYdbVwAA lookup 0-1" y u
EndChar

StartChar: y_o
Encoding: 447 -1 195
Width: 632
VWidth: 0
Flags: HW
HStem: -198 33<163.005 236.866> -61 33<43 134 163.125 236 267 357> 0 21G<165 232.016 734.812 801.812> 0 21G<165 232.016 734.812 801.812> 343 67<562.724 690.055 801.812 986.812> 619 20G<165 232.016> 626 67<563.041 691.58>
VStem: 116 32<-149.688 -76.6098> 165 67.0156<0 639> 251 34<-150.557 -75.3722> 452 66.3799<454.049 581.796> 734.812 67<0 343 454.91 580.495>
LayerCount: 2
Fore
SplineSet
103 -28 m 1
 417 -28 l 1
 417 -61 l 1
 327 -61 l 1
 338 -75 345 -94 345 -113 c 0
 345 -160 307 -198 260 -198 c 0
 214 -198 176 -160 176 -113 c 0
 176 -94 183 -75 194 -61 c 1
 103 -61 l 1
 103 -28 l 1
260 -62 m 0
 231 -62 208 -85 208 -113 c 0
 208 -141 231 -165 260 -165 c 0
 288 -165 311 -141 311 -113 c 0
 311 -85 288 -62 260 -62 c 0
216.8125 693 m 0xebf0
 218.83203125 693.078125 220.842773438 693.116210938 222.844726562 693.116210938 c 0
 318.576171875 693.116210938 392.502929688 605.127929688 392.502929688 514.151367188 c 0
 392.502929688 509.10546875 392.276367188 504.049804688 391.8125 499 c 2
 391.8125 410 l 1
 576.8125 410 l 1
 576.8125 343 l 1
 391.8125 343 l 1
 391.8125 0 l 1
 324.8125 0 l 1
 324.8125 343 l 1
 286.8125 343 248.8125 343 210.8125 343 c 0
 209.743164062 342.978515625 208.677734375 342.966796875 207.615234375 342.966796875 c 0
 110.1484375 342.966796875 42 434.948242188 42 524.8671875 c 0
 42 567.791015625 57.529296875 610.245117188 92.8125 642 c 0
 124.008789062 674.171875 168.512695312 693.037109375 213.349609375 693.037109375 c 0
 214.50390625 693.037109375 215.658203125 693.025390625 216.8125 693 c 0xebf0
324.75 519.819335938 m 0
 324.75 577.001953125 276.21875 626.02734375 218.125976562 626.02734375 c 0
 217.35546875 626.02734375 216.583984375 626.017578125 215.8125 626 c 0
 214.834960938 626.03125 213.860351562 626.046875 212.887695312 626.046875 c 0
 156.66796875 626.046875 108.379882812 574.622070312 108.379882812 519.336914062 c 0
 108.379882812 453.685546875 163.616210938 409.431640625 216.953125 409.431640625 c 0
 278.094726562 409.431640625 324.75 461.5 324.75 519.819335938 c 0
EndSplineSet
LCarets2: 1 0
Ligature2: "+VAhbVzB4MG5/bmPb in +MOkwxjDzZYdbVwAA lookup 0-1" y o
EndChar

StartChar: y_e
Encoding: 448 -1 196
Width: 425
VWidth: 0
Flags: HW
HStem: -198 33<163.005 236.866> -61 33<43 134 163.125 236 267 357> 0 21G<165 232.016 594 661> 0 21G<165 232.016 594 661> 302 69<557.587 594> 578 68<557.587 594> 619 20G<165 232.016 594 661>
VStem: 116 32<-149.688 -76.6098> 165 67.0156<0 639> 251 34<-150.557 -75.3722> 451 67.9531<408.527 539.449> 594 67<0 306.538 372 577 641.479 683> 734.125 66.875<409.443 539.5>
LayerCount: 2
Fore
SplineSet
63 -28 m 1
 377 -28 l 1
 377 -61 l 1
 287 -61 l 1
 298 -75 305 -94 305 -113 c 0
 305 -160 267 -198 220 -198 c 0
 174 -198 136 -160 136 -113 c 0
 136 -94 143 -75 154 -61 c 1
 63 -61 l 1
 63 -28 l 1
220 -62 m 0
 191 -62 168 -85 168 -113 c 0
 168 -141 191 -165 220 -165 c 0
 248 -165 271 -141 271 -113 c 0
 271 -85 248 -62 220 -62 c 0
185 683 m 1
 252 683 l 1
 252 646 l 1
 332 630 392 559 392 474 c 0
 392 390 332 319 252 303 c 1
 252 0 l 1
 185 0 l 1
 185 302 l 1
 104 317 42 389 42 474 c 0
 42 560 104 631 185 646 c 1xedf8
 185 683 l 1
185 578 m 1
 136.314453125 563.137695312 109.953125 518.073242188 109.953125 473.08984375 c 0
 109.953125 430.295898438 133.809570312 387.576171875 185 371 c 1
 185 578 l 1
252 577 m 1
 252 372 l 1
 300.874023438 388.458007812 325.125 431.528320312 325.125 474.54296875 c 0
 325.125 517.779296875 300.624023438 560.958984375 252 577 c 1
EndSplineSet
LCarets2: 1 0
Ligature2: "+VAhbVzB4MG5/bmPb in +MOkwxjDzZYdbVwAA lookup 0-1" y e
EndChar

StartChar: simplified_vocalize
Encoding: 449 -1 217
Width: 1000
HStem: 597.08 124.53
VStem: 296.532 206.936
LayerCount: 2
Fore
SplineSet
503.467773438 721.610351562 m 1
 503.467773438 672.399414062 l 1
 434.489257812 647.29296875 365.510742188 622.186523438 296.532226562 597.080078125 c 1
 296.532226562 646.291015625 l 1
 503.467773438 721.610351562 l 1
EndSplineSet
Validated: 1
EndChar

StartChar: I
Encoding: 73 73 218
Width: 640
Flags: W
HStem: 0 21G<231 298> 0 21G<231 298> 357 67<47 232 343.757 471.089> 640 67<342.233 470.77>
VStem: 232 67.0615<0 357 468.91 594.495> 515.432 66.8242<468.038 595.787>
LayerCount: 2
Fore
SplineSet
222.255859375 0.1162109375 m 0xbc
 221.1015625 0.0908203125 219.947265625 0.0791015625 218.79296875 0.0791015625 c 0
 173.956054688 0.0791015625 129.453125 18.9443359375 98.255859375 51.1162109375 c 0
 62.642578125 82.87890625 47 125.34765625 47 168.283203125 c 0
 47 258.19140625 115.594726562 350.149414062 213.05859375 350.149414062 c 0
 214.12109375 350.149414062 215.186523438 350.137695312 216.255859375 350.116210938 c 0
 254.255859375 350.116210938 292.255859375 350.116210938 330.255859375 350.116210938 c 1
 330.255859375 479.116210938 331.255859375 578.116210938 331.255859375 707.116210938 c 1
 398.255859375 707.116210938 l 1
 398.255859375 578.116210938 397.255859375 479.116210938 397.255859375 350.116210938 c 1
 582.255859375 350.116210938 l 1
 582.255859375 283.116210938 l 1
 397.255859375 283.116210938 l 1
 397.255859375 194.116210938 l 2
 397.719726562 189.06640625 397.947265625 184.010742188 397.947265625 178.96484375 c 0
 397.947265625 87.98828125 324.01953125 -0 228.288085938 -0 c 0
 226.287109375 -0 224.275390625 0.0380859375 222.255859375 0.1162109375 c 0xbc
222.396484375 283.684570312 m 0
 169.057617188 283.684570312 113.82421875 239.428710938 113.82421875 173.779296875 c 0
 113.82421875 118.494140625 162.111328125 67.0693359375 218.33203125 67.0693359375 c 0
 219.303710938 67.0693359375 220.279296875 67.0849609375 221.255859375 67.1162109375 c 0
 222.02734375 67.0986328125 222.798828125 67.0888671875 223.569335938 67.0888671875 c 0
 281.661132812 67.0888671875 330.194335938 116.111328125 330.194335938 173.296875 c 0
 330.194335938 231.614257812 283.540039062 283.684570312 222.396484375 283.684570312 c 0
EndSplineSet
EndChar

StartChar: A
Encoding: 65 65 219
Width: 640
Flags: W
HStem: 0 21G<231 298> 0 21G<231 298> 357 67<47 232 343.757 471.089> 640 67<342.233 470.77>
VStem: 232 67.0615<0 357 468.91 594.495> 515.432 66.8242<468.038 595.787>
LayerCount: 2
Fore
SplineSet
407 0 m 4xbc
 408 0 409 0 410 -0 c 4
 455 0 500 19 531 51 c 4
 567 83 582 125 582 168 c 4
 582 258 513 350 416 350 c 4
 415 350 414 350 413 350 c 4
 375 350 337 350 299 350 c 5
 299 479 298 578 298 707 c 5
 231 707 l 5
 231 578 232 479 232 350 c 5
 47 350 l 5
 47 283 l 5
 232 283 l 5
 232 194 l 6
 232 189 231 184 231 179 c 4
 231 88 305 0 401 -0 c 4
 403 0 405 0 407 0 c 4xbc
407 284 m 4
 460 284 515 240 515 174 c 4
 515 119 467 67 411 67 c 4
 410 67 409 67 408 67 c 4
 407 67 407 67 406 67 c 4
 348 67 299 116 299 173 c 4
 299 231 346 284 407 284 c 4
EndSplineSet
EndChar

StartChar: U
Encoding: 85 85 220
Width: 595
Flags: W
HStem: 0 21G<459 526> 0 21G<459 526> 325 67<286.549 414.076> 608 67<44 213 287.004 414.02>
VStem: 175 66.875<435.943 563.33> 459 67<0 363 437.016 563.236>
LayerCount: 2
Fore
SplineSet
526 0 m 5xbc
 215 0 l 5
 120 2 44 80 44 175 c 6
 44 675 l 5
 111 675 l 5
 111 312 l 5
 141 336 178 350 219 350 c 4
 316 350 395 272 395 175 c 4
 395 134 381 97 357 67 c 5
 526 67 l 5
 526 0 l 5xbc
218 67 m 4
 282 67 328 118 328 175 c 4
 328 193 323 211 313 229 c 4
 295 260 262 281 226 283 c 5
 219 283 l 6
 158 283 111 231 111 174 c 4
 111 151 119 127 137 105 c 4
 144 96 172 67 218 67 c 4
EndSplineSet
EndChar

StartChar: O
Encoding: 79 79 221
Width: 595
Flags: W
HStem: 0 21G<459 526> 0 21G<459 526> 325 67<287 414> 608 67<44 213 287 414>
VStem: 175 67<436 563> 459 67<0 363 437 563>
LayerCount: 2
Fore
SplineSet
44 0 m 1xbc
 355 0 l 1
 450 2 526 80 526 175 c 2
 526 675 l 1
 459 675 l 1
 459 312 l 1
 429 336 392 350 351 350 c 0
 254 350 175 272 175 175 c 0
 175 134 189 97 213 67 c 1
 44 67 l 1
 44 0 l 1xbc
352 67 m 0
 288.315429688 67 241.875 118.15625 241.875 174.712890625 c 0
 241.875 192.75390625 246.600585938 211.344726562 257 229 c 0
 275 260 308 281 344 283 c 1
 351 283 l 2
 411.997070312 283 458.908203125 231.185546875 458.908203125 174.296875 c 0
 458.908203125 150.977539062 451.025390625 126.8046875 433 105 c 0
 426 96 398 67 352 67 c 0
EndSplineSet
EndChar

StartChar: E
Encoding: 69 69 222
Width: 458
Flags: W
HStem: 0 21G<194 261> 0 21G<194 261> 302 69<157.587 194> 578 68<157.587 194> 663 20G<194 261>
VStem: 51 67.9531<408.527 539.449> 194 67<0 306.538 372 577 641.479 683> 334.125 66.875<409.443 539.5>
LayerCount: 2
Fore
SplineSet
194 0 m 5xbf
 261 0 l 5
 261 37 l 5
 341 53 401 124 401 209 c 4
 401 293 341 364 261 380 c 5
 261 683 l 5
 194 683 l 5
 194 381 l 5
 113 366 51 294 51 209 c 4
 51 123 113 52 194 37 c 5
 194 0 l 5xbf
194 105 m 5
 145 120 119 165 119 210 c 4
 119 253 143 295 194 312 c 5
 194 105 l 5
261 106 m 5
 261 311 l 5
 310 295 334 251 334 208 c 4
 334 165 310 122 261 106 c 5
EndSplineSet
EndChar

StartChar: quotesingle
Encoding: 39 39 223
Width: 369
Flags: HW
HStem: 0 21G<73 140.016> 0 21G<73 140.016> 619 20G<73 140.016>
VStem: 73 67.0156<0 639>
LayerCount: 2
Fore
SplineSet
316 375 m 1
 316 308 l 1
 38 308 l 1
 38 375 l 1
 316 375 l 1
EndSplineSet
EndChar
